<?xml version="1.0" encoding="UTF-8"?>
<svg id="Layer_1" data-name="Layer 1" xmlns="http://www.w3.org/2000/svg" viewBox="0 0 340.17 340.17">
  <defs>
    <style>
      .cls-1 {
        fill: #fff;
        stroke-width: 0px;
      }
    </style>
  </defs>
  <g id="Close">
    <path class="cls-1" d="m223.12,170.08l106.07-106.07c14.64-14.64,14.64-38.39,0-53.03h0c-14.64-14.64-38.39-14.64-53.03,0l-106.07,106.07L64.02,10.98C49.37-3.66,25.63-3.66,10.98,10.98h0c-14.64,14.64-14.64,38.39,0,53.03l106.07,106.07L10.98,276.15c-14.64,14.64-14.64,38.39,0,53.03h0c14.64,14.64,38.39,14.64,53.03,0l106.07-106.07,106.07,106.07c14.64,14.64,38.39,14.64,53.03,0h0c14.64-14.64,14.64-38.39,0-53.03l-106.07-106.07Z"/>
  </g>
</svg>