<?xml version="1.0" encoding="UTF-8"?>
<svg id="Layer_1" data-name="Layer 1" xmlns="http://www.w3.org/2000/svg" viewBox="0 0 150 100">
  <defs>
    <style>
      .cls-1 {
        fill: none;
        stroke: #fff;
        stroke-miterlimit: 10;
        stroke-width: 4px;
      }

      .cls-2 {
        fill: #fff;
        stroke-width: 0px;
      }
    </style>
  </defs>
  <path class="cls-2" d="M128.82,4c9.47,0,17.18,7.71,17.18,17.18v57.64c0,9.47-7.71,17.18-17.18,17.18H21.18c-9.47,0-17.18-7.71-17.18-17.18V21.18c0-9.47,7.71-17.18,17.18-17.18h107.64M128.82,0H21.18C9.48,0,0,9.48,0,21.18v57.64c0,11.7,9.48,21.18,21.18,21.18h107.64c11.7,0,21.18-9.48,21.18-21.18V21.18c0-11.7-9.48-21.18-21.18-21.18h0Z"/>
  <line class="cls-1" x1="142" y1="6.5" x2="75" y2="61.5"/>
  <line class="cls-1" x1="9" y1="7.5" x2="75" y2="61.5"/>
  <circle class="cls-2" cx="75" cy="61.5" r="2"/>
  <line class="cls-1" x1="8.1" y1="93.25" x2="61" y2="50.5"/>
  <line class="cls-1" x1="141.1" y1="92.25" x2="89" y2="50.5"/>
</svg>