<?xml version="1.0" encoding="UTF-8"?>
<svg id="Layer_1" data-name="Layer 1" xmlns="http://www.w3.org/2000/svg" version="1.1" viewBox="0 0 360 346.1">
  <defs>
    <style>
      .cls-1 {
        stroke-width: 10px;
      }

      .cls-1, .cls-2, .cls-3 {
        fill: none;
        stroke: #fff;
        stroke-miterlimit: 10;
      }

      .cls-2 {
        stroke-linecap: round;
      }

      .cls-2, .cls-3 {
        stroke-width: 13px;
      }

      .cls-4 {
        fill: #fff;
        stroke-width: 0px;
      }
    </style>
  </defs>
  <line class="cls-3" x1="8.5" y1="188.5" x2="100.5" y2="188.5"/>
  <line class="cls-3" x1="9" y1="84.5" x2="65" y2="84.5"/>
  <circle class="cls-1" cx="79.5" cy="84.5" r="14.5"/>
  <g>
    <path class="cls-4" d="M17.7,332.8h-6.7v-30.8h6.7s0,30.8,0,30.8Z"/>
    <path class="cls-4" d="M60,332.8h-6.6v-18.6c0-1,0-2,0-3.1,0-1.1.1-2.2.2-3.4h-.2c-.2.9-.3,1.7-.5,2.4-.1.7-.3,1.2-.5,1.6l-7.5,21.1h-5.4l-7.5-20.9c0-.3-.2-.8-.4-1.5-.2-.7-.3-1.6-.6-2.7h-.2c.1,1.5.2,2.8.2,4.1,0,1.3,0,2.5,0,3.7v17.3h-6.1v-30.8h9.8l6.5,18.5c.3.7.5,1.4.7,2,.2.7.3,1.3.5,2h.1c.2-.8.4-1.5.6-2.2.2-.7.4-1.3.6-1.9l6.5-18.4h9.6v30.8h0Z"/>
    <path class="cls-4" d="M64.2,332.8l11.2-30.8h7.9l11,30.8h-7.3l-2.2-6.5h-11.3l-2.1,6.5s-7.3,0-7.3,0ZM75.1,321h8.2l-3.5-10.9c-.1-.4-.2-.8-.3-1.1s-.2-.7-.2-1.2h-.2c0,.4-.2.8-.2,1.1s-.2.7-.3,1l-3.5,11h0Z"/>
    <path class="cls-4" d="M126.3,332.8h-6.8l-12.9-19.7c-.4-.6-.7-1-.9-1.5-.3-.4-.5-.8-.6-1.1h0c0,.5,0,1.2.1,2s0,1.8,0,2.9v17.3h-6.3v-30.8h7.3l12.4,19.1c.3.4.5.9.8,1.3.3.4.5.8.7,1.2h0c0-.4,0-.9-.1-1.6s0-1.6,0-2.6v-17.4h6.3v30.8h0Z"/>
    <path class="cls-4" d="M158.8,319.5c0,4.6-1.1,8.1-3.2,10.4s-5.4,3.5-9.6,3.5-7.3-1.1-9.4-3.4-3.1-5.6-3.1-10.2v-17.8h6.7v17.9c0,2.5.5,4.4,1.5,5.7,1,1.3,2.5,1.9,4.5,1.9s3.4-.6,4.4-1.8c1-1.2,1.5-3.1,1.5-5.5v-18.2h6.7v17.5h0Z"/>
    <path class="cls-4" d="M184.3,332.8h-18.3v-30.8h17.6v5.5h-10.9v7.1h10.2v5.5h-10.2v7.3h11.6v5.5h0Z"/>
    <path class="cls-4" d="M207.9,332.8h-18.2v-30.8h6.7v25.4h11.5v5.5h0Z"/>
    <path class="cls-4" d="M242.3,307.5h-10.9v7.8h10.1v5.5h-10.1v12.1h-6.7v-30.8h17.6v5.5h0Z"/>
    <path class="cls-4" d="M266.2,332.8h-18.3v-30.8h17.6v5.5h-10.9v7.1h10.2v5.5h-10.2v7.3h11.6v5.5Z"/>
    <path class="cls-4" d="M298,332.8h-6.7v-12.6h-13v12.6h-6.7v-30.8h6.7v12.4h13v-12.4h6.7v30.8Z"/>
    <path class="cls-4" d="M303.2,330.7l2.8-5.2c1.5.9,2.9,1.6,4.1,1.9,1.2.3,2.4.5,3.6.5s2.9-.3,3.7-1c.8-.6,1.2-1.6,1.2-2.7s-.3-1.9-1-2.5-1.9-1.1-3.6-1.5c-3.4-.8-5.9-1.9-7.4-3.4s-2.3-3.4-2.3-6,1-4.8,3-6.6c2-1.8,4.8-2.7,8.4-2.7s3,.2,4.4.5c1.5.3,2.9.9,4.2,1.5l-2.6,5.3c-1.2-.7-2.3-1.1-3.3-1.4-1-.3-2-.4-3-.4-1.4,0-2.5.3-3.3.9-.8.6-1.2,1.4-1.2,2.4s.4,1.7,1.1,2.2c.7.5,2,1,3.9,1.5,3.3.8,5.7,1.9,7.2,3.4,1.5,1.5,2.2,3.6,2.2,6.3s-1,5.2-3,7c-2,1.8-5,2.7-8.8,2.7s-3.5-.2-5.3-.7-3.5-1.1-4.9-1.9h0Z"/>
    <path class="cls-4" d="M349,332.8h-18.3v-30.8h17.6v5.5h-10.9v7.1h10.2v5.5h-10.2v7.3h11.6v5.5Z"/>
  </g>
  <line class="cls-2" x1="351" y1="228" x2="277" y2="228"/>
  <line class="cls-2" x1="247.5" y1="258.5" x2="276.5" y2="228.5"/>
  <line class="cls-2" x1="152" y1="6.5" x2="208" y2="6.5"/>
  <line class="cls-2" x1="128.5" y1="29.5" x2="128.5" y2="54.5"/>
  <line class="cls-2" x1="231.5" y1="29.5" x2="231.5" y2="54.5"/>
  <line class="cls-2" x1="151.5" y1="6.5" x2="128.5" y2="29.5"/>
  <line class="cls-2" x1="209.5" y1="6.5" x2="231.5" y2="29.5"/>
  <path class="cls-4" d="M65,35v12h-17v-12h17M69.2,25h-25.3c-3.2,0-5.8,2.6-5.8,5.8v20.3c0,3.2,2.6,5.8,5.8,5.8h25.3c3.2,0,5.8-2.6,5.8-5.8v-20.3c0-3.2-2.6-5.8-5.8-5.8h0Z"/>
  <g>
    <circle class="cls-3" cx="180.5" cy="158.5" r="57.5"/>
    <circle class="cls-3" cx="180" cy="158" r="85"/>
    <line class="cls-2" x1="138" y1="189" x2="223" y2="189"/>
    <line class="cls-2" x1="128.5" y1="174.5" x2="167.5" y2="135.5"/>
    <line class="cls-2" x1="167.5" y1="135.5" x2="213" y2="186"/>
    <line class="cls-2" x1="195.5" y1="166.5" x2="230.5" y2="130.5"/>
  </g>
  <line class="cls-3" x1="350.5" y1="124.5" x2="258.5" y2="124.5"/>
  <path class="cls-2" d="M231.5,55h105.6c9,0,16.4,7.4,16.4,16.3v173.3c0,9-7.4,16.4-16.4,16.4H22.9c-9,0-16.4-7.4-16.4-16.4V71.3c0-9,7.4-16.3,16.4-16.3h105.6"/>
  <line class="cls-2" x1="125.3" y1="55" x2="187.3" y2="55"/>
</svg>