<?xml version="1.0" encoding="UTF-8"?>
<svg id="Layer_1" data-name="Layer 1" xmlns="http://www.w3.org/2000/svg" viewBox="0 0 360 346.15">
  <defs>
    <style>
      .cls-1 {
        fill: #000;
        stroke-width: 0px;
      }

      .cls-2, .cls-3 {
        stroke-width: 13px;
      }

      .cls-2, .cls-3, .cls-4 {
        fill: none;
        stroke: #000;
        stroke-miterlimit: 10;
      }

      .cls-3 {
        stroke-linecap: round;
      }

      .cls-4 {
        stroke-width: 10px;
      }
    </style>
  </defs>
  <line class="cls-2" x1="8.5" y1="188.5" x2="100.5" y2="188.5"/>
  <line class="cls-2" x1="9" y1="84.5" x2="65" y2="84.5"/>
  <circle class="cls-4" cx="79.5" cy="84.5" r="14.5"/>
  <g>
    <path class="cls-1" d="M24.24,332.8h-6.7v-30.81h6.7v30.81Z"/>
    <path class="cls-1" d="M66.61,332.8h-6.64v-18.56c0-.99.02-2.03.08-3.14.05-1.1.12-2.25.2-3.44h-.19c-.19.93-.35,1.73-.49,2.38-.14.66-.29,1.2-.45,1.63l-7.46,21.12h-5.41l-7.54-20.93c-.1-.29-.23-.78-.4-1.48-.17-.7-.35-1.61-.57-2.73h-.19c.11,1.45.19,2.83.23,4.14.04,1.31.05,2.55.05,3.71v17.29h-6.06v-30.81h9.78l6.51,18.48c.27.69.49,1.37.67,2.04.17.67.33,1.34.47,2h.13c.2-.79.4-1.52.61-2.2.21-.68.41-1.31.61-1.88l6.51-18.43h9.56v30.81Z"/>
    <path class="cls-1" d="M70.8,332.8l11.24-30.81h7.95l11.02,30.81h-7.35l-2.15-6.55h-11.32l-2.13,6.55h-7.26ZM81.67,320.99h8.25l-3.48-10.89c-.14-.4-.25-.75-.33-1.06-.08-.31-.15-.7-.2-1.17h-.17c-.07.42-.15.79-.23,1.12-.08.33-.18.67-.29,1.03l-3.54,10.98Z"/>
    <path class="cls-1" d="M132.83,332.8h-6.83l-12.89-19.7c-.36-.56-.67-1.04-.92-1.46-.26-.42-.46-.77-.6-1.07h-.09c.06.53.1,1.21.13,2.03.03.82.04,1.79.04,2.91v17.29h-6.34v-30.81h7.28l12.44,19.1c.27.43.54.86.81,1.28.26.42.5.83.72,1.21h.09c-.06-.36-.1-.89-.13-1.6-.03-.71-.04-1.59-.04-2.63v-17.36h6.34v30.81Z"/>
    <path class="cls-1" d="M165.33,319.51c0,4.61-1.07,8.07-3.21,10.38-2.14,2.31-5.35,3.46-9.64,3.46s-7.27-1.12-9.35-3.36c-2.08-2.24-3.12-5.63-3.12-10.17v-17.81h6.72v17.92c0,2.54.5,4.44,1.5,5.7,1,1.27,2.5,1.9,4.49,1.9s3.43-.61,4.42-1.84c.98-1.22,1.47-3.06,1.47-5.51v-18.18h6.7v17.51Z"/>
    <path class="cls-1" d="M190.86,332.8h-18.33v-30.81h17.62v5.48h-10.91v7.09h10.16v5.48h-10.16v7.3h11.62v5.46Z"/>
    <path class="cls-1" d="M214.47,332.8h-18.18v-30.81h6.7v25.35h11.47v5.46Z"/>
    <path class="cls-1" d="M248.86,307.47h-10.94v7.78h10.05v5.46h-10.05v12.1h-6.7v-30.81h17.64v5.48Z"/>
    <path class="cls-1" d="M272.75,332.8h-18.33v-30.81h17.62v5.48h-10.91v7.09h10.16v5.48h-10.16v7.3h11.62v5.46Z"/>
    <path class="cls-1" d="M304.59,332.8h-6.72v-12.65h-12.98v12.65h-6.7v-30.81h6.7v12.38h12.98v-12.38h6.72v30.81Z"/>
    <path class="cls-1" d="M309.75,330.72l2.77-5.24c1.55.93,2.9,1.57,4.06,1.9,1.16.34,2.38.5,3.65.5,1.65,0,2.88-.33,3.71-.98.82-.65,1.24-1.56,1.24-2.72,0-1.07-.33-1.91-.99-2.5-.66-.59-1.86-1.1-3.59-1.51-3.41-.8-5.89-1.92-7.43-3.36s-2.32-3.44-2.32-6,1-4.79,3-6.61c2-1.81,4.8-2.72,8.41-2.72,1.5,0,2.98.17,4.44.52,1.45.34,2.85.85,4.18,1.53l-2.56,5.29c-1.17-.66-2.29-1.13-3.34-1.43-1.05-.29-2.04-.44-2.95-.44-1.42,0-2.52.28-3.32.85-.79.57-1.19,1.38-1.19,2.44,0,.96.36,1.7,1.08,2.21.72.52,2.02,1,3.9,1.46,3.31.77,5.7,1.91,7.18,3.41,1.47,1.5,2.21,3.6,2.21,6.31,0,2.89-1.02,5.24-3.05,7.04-2.03,1.8-4.98,2.7-8.83,2.7-1.73,0-3.51-.23-5.34-.69s-3.46-1.1-4.91-1.93Z"/>
    <path class="cls-1" d="M355.62,332.8h-18.33v-30.81h17.62v5.48h-10.91v7.09h10.16v5.48h-10.16v7.3h11.62v5.46Z"/>
  </g>
  <line class="cls-3" x1="351" y1="228" x2="277" y2="228"/>
  <line class="cls-3" x1="247.5" y1="258.5" x2="276.5" y2="228.5"/>
  <line class="cls-3" x1="152" y1="6.5" x2="208" y2="6.5"/>
  <line class="cls-3" x1="128.5" y1="29.5" x2="128.5" y2="54.5"/>
  <line class="cls-3" x1="231.5" y1="29.5" x2="231.5" y2="54.5"/>
  <line class="cls-3" x1="151.5" y1="6.5" x2="128.5" y2="29.5"/>
  <line class="cls-3" x1="209.5" y1="6.5" x2="231.5" y2="29.5"/>
  <path class="cls-1" d="M65,35v12h-17v-12h17M69.17,25h-25.33c-3.21,0-5.83,2.63-5.83,5.83v20.33c0,3.21,2.63,5.83,5.83,5.83h25.33c3.21,0,5.83-2.63,5.83-5.83v-20.33c0-3.21-2.63-5.83-5.83-5.83h0Z"/>
  <g>
    <circle class="cls-2" cx="180.5" cy="158.5" r="57.5"/>
    <circle class="cls-2" cx="180" cy="158" r="85"/>
    <line class="cls-3" x1="138" y1="189" x2="223" y2="189"/>
    <line class="cls-3" x1="128.5" y1="174.5" x2="167.5" y2="135.5"/>
    <line class="cls-3" x1="167.5" y1="135.5" x2="213" y2="186"/>
    <line class="cls-3" x1="195.5" y1="166.5" x2="230.5" y2="130.5"/>
  </g>
  <line class="cls-2" x1="350.5" y1="124.5" x2="258.5" y2="124.5"/>
  <path class="cls-3" d="M231.5,55h105.65c9,0,16.35,7.36,16.35,16.35v173.29c0,9-7.36,16.35-16.35,16.35H22.85c-9,0-16.35-7.36-16.35-16.35V71.35c0-9,7.36-16.35,16.35-16.35h105.65"/>
  <line class="cls-3" x1="125.33" y1="55" x2="187.33" y2="55"/>
</svg>