<?xml version="1.0" encoding="UTF-8"?>
<svg xmlns="http://www.w3.org/2000/svg" xmlns:xlink="http://www.w3.org/1999/xlink" viewBox="0 0 1080 1350">
  <defs>
    <style>
      .cls-1 {
        fill: #ff0edb;
      }

      .cls-1, .cls-2, .cls-3, .cls-4, .cls-5, .cls-6, .cls-7, .cls-8, .cls-9, .cls-10, .cls-11, .cls-12, .cls-13, .cls-14, .cls-15, .cls-16, .cls-17, .cls-18, .cls-19, .cls-20, .cls-21, .cls-22, .cls-23, .cls-24, .cls-25, .cls-26, .cls-27, .cls-28, .cls-29, .cls-30, .cls-31, .cls-32, .cls-33, .cls-34, .cls-35, .cls-36, .cls-37, .cls-38, .cls-39, .cls-40, .cls-41, .cls-42, .cls-43, .cls-44, .cls-45, .cls-46, .cls-47, .cls-48, .cls-49, .cls-50, .cls-51, .cls-52, .cls-53, .cls-54, .cls-55, .cls-56, .cls-57, .cls-58, .cls-59, .cls-60, .cls-61, .cls-62, .cls-63, .cls-64, .cls-65 {
        stroke-width: 0px;
      }

      .cls-2 {
        fill: #ff752f;
      }

      .cls-3 {
        fill: #ff8c08;
      }

      .cls-4 {
        fill: #6ba094;
      }

      .cls-5 {
        fill: #ff506d;
      }

      .cls-6 {
        fill: #849d7b;
      }

      .cls-7 {
        fill: url(#linear-gradient);
      }

      .cls-8 {
        fill: #ef9310;
      }

      .cls-9 {
        fill: #ff09e2;
      }

      .cls-10 {
        fill: #bd9742;
      }

      .cls-11 {
        fill: #ff1cc3;
      }

      .cls-12 {
        fill: #ff467d;
      }

      .cls-13 {
        fill: #ff05ea;
      }

      .cls-14 {
        fill: #b5984a;
      }

      .cls-15 {
        fill: #19a8e6;
      }

      .cls-16 {
        fill: #10a8ef;
      }

      .cls-17 {
        fill: #5aa1a5;
      }

      .cls-18 {
        fill: #ff17cb;
      }

      .cls-19 {
        fill: #ff4b75;
      }

      .cls-21 {
        fill: #0af;
      }

      .cls-22 {
        fill: #ff5465;
      }

      .cls-23 {
        fill: #21a7de;
      }

      .cls-24 {
        fill: #a59a5a;
      }

      .cls-25 {
        fill: #31a5ce;
      }

      .cls-26 {
        fill: #ff6746;
      }

      .cls-27 {
        fill: #ff6c3e;
      }

      .cls-28 {
        fill: #ff13d3;
      }

      .cls-29 {
        fill: #ff595e;
      }

      .cls-30 {
        fill: #ff2fa4;
      }

      .cls-31 {
        fill: #63a09c;
      }

      .cls-32 {
        fill: #ce9631;
      }

      .cls-33 {
        fill: #ff25b4;
      }

      .cls-34 {
        fill: #8c9c73;
      }

      .cls-35 {
        fill: #ff8810;
      }

      .cls-36 {
        fill: #e69319;
      }

      .cls-37 {
        fill: #ff00f2;
      }

      .cls-38 {
        fill: #52a2ad;
      }

      .cls-39 {
        fill: #29a6d6;
      }

      .cls-40 {
        fill: #08a9f7;
      }

      .cls-41 {
        fill: #3aa4c5;
      }

      .cls-42 {
        fill: #ff3894;
      }

      .cls-43 {
        fill: #ff21bb;
      }

      .cls-44 {
        fill: #ad9952;
      }

      .cls-45 {
        fill: #d69529;
      }

      .cls-46 {
        fill: #7b9e84;
      }

      .cls-47 {
        fill: #ff7a27;
      }

      .cls-48 {
        fill: #ff339c;
      }

      .cls-49 {
        fill: #ff624e;
      }

      .cls-50 {
        fill: #42a4bd;
      }

      .cls-51 {
        fill: #ff7e1f;
      }

      .cls-52 {
        fill: #c5973a;
      }

      .cls-53 {
        fill: #ff4185;
      }

      .cls-54 {
        fill: #4aa3b5;
      }

      .cls-55 {
        fill: #ff2aac;
      }

      .cls-56 {
        fill: #ff8317;
      }

      .cls-57 {
        fill: #de9421;
      }

      .cls-58 {
        fill: #ff3d8d;
      }

      .cls-59 {
        fill: #ff5e56;
      }

      .cls-60 {
        fill: #949b6b;
      }

      .cls-61 {
        fill: #739f8c;
      }

      .cls-62 {
        fill: #f79208;
      }

      .cls-63 {
        fill: #9c9b63;
      }

      .cls-64 {
        fill: #ff9100;
      }

      .cls-65 {
        fill: #ff7037;
      }
    </style>
    <linearGradient id="linear-gradient" x1="59.74" y1="1072.08" x2="1284.83" y2="33.62" gradientUnits="userSpaceOnUse">
      <stop offset="0" stop-color="#474747"/>
      <stop offset="1" stop-color="#000"/>
    </linearGradient>
  </defs>
  <g id="Layer_2" data-name="Layer 2">
    <g>
      <rect class="cls-7" x="-276" y="-129" width="1606" height="1610"/>
      <path class="cls-20" d="m1329.5-128.5v1609H-275.5V-128.5h1605m1-1H-276.5v1611h1607V-129.5h0Z"/>
    </g>
  </g>
  <g id="Layer_1" data-name="Layer 1">
    <g>
      <path class="cls-21" d="m878.38-18.17c.25,36,.32,72.01.8,108,.46,35.03,2.01,70.28,9.53,104.61,14.63,66.79,48.94,127.27,74.32,190.22,24.72,61.32,44.02,126.75,39.9,193.54-3.96,64.16-30.72,122.59-77.42,166.81-44.86,42.47-100.69,71.73-155.65,98.86-55.1,27.2-111.07,52.57-167.02,77.94-110.08,49.93-220.94,99.72-323.66,163.87-48.95,30.57-95.95,64.52-138.77,103.28-21.52,19.48-42.56,39.89-59.54,63.54-15.69,21.86-29.07,47.76-29.37,75.26-.14,12.84,2.94,25.19,8.62,36.67.86,1.73,3.44.21,2.59-1.51-29.25-59.11,24.91-119.79,64.8-157.88,42.26-40.35,89.13-75.63,138.19-107.26,100.92-65.06,210.56-115.23,319.66-164.76,55.33-25.12,110.76-50.04,165.46-76.52,55.01-26.63,110.8-54.22,158.34-93.15,46.23-37.85,79.51-87.06,91.61-146.07,12.63-61.61,2.57-124.69-16.65-183.81-21.08-64.85-54.22-124.66-77.4-188.64-12.21-33.69-19.82-68.17-22.55-103.93-2.7-35.36-2.18-70.94-2.42-106.38-.12-17.57-.24-35.13-.37-52.7-.01-1.93-3.01-1.93-3,0h0Z"/>
      <path class="cls-40" d="m859.16-19.67c1.49,34.05,2.87,68.11,4.51,102.15,1.59,32.96,4,66.05,11.33,98.31,14.52,63.95,47.86,121.68,73.74,181.39,25.74,59.41,46.99,122.73,47.21,188.14.2,59.24-17.66,117.82-55.88,163.67-37.02,44.41-87.48,75.66-137.96,102.58-57.33,30.56-116.66,57.43-175.56,84.77-116.67,54.15-233.75,109.22-340.99,180.79-50.86,33.94-99.54,71.48-143.05,114.55-20.35,20.15-40.24,41.24-55.65,65.51-13.8,21.73-24.76,47.08-23.62,73.32.53,12.12,3.83,23.68,9.32,34.47.88,1.72,3.46.2,2.59-1.51-28.75-56.52,17.41-115.5,54.78-154.68,42.96-45.04,91.64-84.13,142.84-119.37,105.37-72.51,221.21-128.16,336.91-181.94,59.29-27.56,118.89-54.61,177.07-84.49,50-25.67,100.11-54.47,139.9-94.77,38.84-39.34,62.86-89.44,69.93-144.24,7.79-60.42-4.8-121.08-25.14-177.87-22.22-62.04-55.17-119.42-78.24-181.05-12.19-32.56-19.78-65.96-23.26-100.54-3.34-33.21-4.14-66.68-5.61-100.01-.72-16.39-1.44-32.78-2.16-49.17-.08-1.92-3.08-1.93-3,0h0Z"/>
      <path class="cls-16" d="m839.94-21.17c2.8,34.01,5.45,68.03,8.44,102.02,2.86,32.56,6.63,65.18,15.22,96.79,17.15,63.11,51.71,119.9,78.03,179.33,26.01,58.73,46.82,121.6,46.76,186.49-.05,59.18-18.2,117.65-56.34,163.44s-86.54,75.24-136.53,102.09c-56.67,30.43-115.38,57.09-173.51,84.56-115.11,54.39-229.24,111.98-333.07,186.23-49.19,35.17-95.98,73.98-137.59,117.94-35.72,37.74-80.19,87.04-76.43,143.04.82,12.25,4.37,23.88,10.05,34.74.89,1.71,3.48.2,2.59-1.51-30.06-57.54,15.34-118.15,52.51-159.6,40.88-45.57,87.42-85.79,136.67-122.06,101.45-74.7,213.64-132.98,327.16-186.88,58.88-27.96,118.27-55,176.19-84.94,49.83-25.75,99.69-54.7,139.23-95.07,38.62-39.43,62.52-89.59,69.64-144.28,7.79-59.89-4.39-120.09-24.76-176.36-22.35-61.72-55.7-118.37-80.67-178.92-12.46-30.2-21.34-61.28-26.29-93.58-5.26-34.34-7.36-69.15-10.21-103.75-1.37-16.57-2.73-33.15-4.1-49.72-.16-1.91-3.16-1.93-3,0h0Z"/>
      <path class="cls-15" d="m820.72-22.67c4.08,33.26,8.02,66.55,12.27,99.79,4.09,31.94,9.06,63.89,18.61,94.72,19.05,61.55,54.05,116.83,80.79,175.09,26.82,58.46,48.06,121.26,48.46,186.22.36,59.1-17.2,117.86-54.68,164.09-36.24,44.71-86.06,76.42-136.12,103.57-56.72,30.77-115.61,57.52-173.76,85.43-113.78,54.62-225.22,114.35-325.53,191.55-47.39,36.47-92.21,76.55-131.71,121.52-34.59,39.39-77.17,89.88-72.5,146.04,1.05,12.6,4.88,24.54,10.85,35.65.91,1.7,3.5.19,2.59-1.51-30.81-57.43,11.5-118.57,47.5-162.03,38.8-46.83,83.46-88.52,131.02-126.32,98.22-78.06,208.22-138.96,320.85-193.43,58.45-28.27,117.6-55.25,175.19-85.28,49.91-26.02,99.82-55.42,139.03-96.42,38.09-39.84,61.34-90.36,68.09-144.98,7.41-59.95-5.12-120.18-26.04-176.26-22.59-60.55-55.91-115.94-82.31-174.74-13.56-30.19-23.62-61.37-29.81-93.89-6.3-33.11-9.72-66.75-13.82-100.19-1.99-16.21-3.97-32.42-5.96-48.63-.23-1.89-3.23-1.92-3,0h0Z"/>
      <path class="cls-23" d="m801.55-23.77c5.55,33.69,10.91,67.41,16.69,101.05,5.61,32.58,12.39,65.07,24,96.12,22.51,60.16,58.26,114.38,85.07,172.58,26.52,57.57,46.6,119.76,45.98,183.76-.57,59.05-19.23,117.29-57.24,162.96-36.81,44.23-86.66,75.7-136.77,102.79-56.32,30.44-114.72,56.99-172.26,85.01-111.04,54.08-218.38,115.02-313.83,194-45.97,38.04-89.13,79.73-126.74,126.11-33.31,41.08-73.96,92.96-68.34,149.3,1.29,12.97,5.43,25.24,11.7,36.63.93,1.69,3.52.18,2.59-1.51-31.65-57.49,7.81-119.32,42.54-164.95,36.87-48.44,79.92-91.89,126.11-131.44,93.74-80.28,200.03-142.84,310.44-197.2,58.05-28.58,116.98-55.43,174.33-85.41,49.83-26.04,99.62-55.4,138.92-96.22,38.42-39.91,62.14-90.58,69.2-145.47,7.64-59.41-4.31-119.2-25.14-174.82-22.42-59.85-55.68-114.29-83.76-171.46-15.03-30.6-26.97-62.13-34.77-95.35-7.59-32.35-12.34-65.34-17.74-98.1-2.7-16.4-5.4-32.79-8.1-49.19-.31-1.9-3.2-1.09-2.89.8h0Z"/>
      <path class="cls-39" d="m782.32-25.27c6.96,33.36,13.73,66.77,20.95,100.08,7.04,32.49,15.4,64.72,28.36,95.41,24.95,59.09,61.54,112.49,88.71,170.54,26.98,57.65,46.72,120.2,45.35,184.46-1.25,58.58-20.49,116.11-58.35,161.25-37.19,44.35-87.36,75.9-137.78,103.14-55.45,29.96-112.89,56.14-169.39,84.02-57.75,28.49-114.65,58.6-168.71,93.69-48.37,31.4-94.58,66.21-137.62,104.6-43.53,38.83-84.02,81.27-119.04,127.97-32.35,43.13-71.92,97.41-65.2,154.55,1.57,13.37,6,25.96,12.6,37.66.95,1.68,3.54.17,2.59-1.51-32.67-57.87,4.42-120.8,37.87-168.81,34.52-49.53,75.37-94.39,119.65-135.34,90.16-83.37,194.16-147.74,303.66-202.42,57.25-28.59,115.52-55.2,172.19-84.94,49.37-25.91,98.63-55.1,137.71-95.44,38.63-39.87,62.87-90.57,70.25-145.57,7.91-58.95-3.38-118.35-24.1-173.6-22.53-60.06-56.37-114.35-86.23-170.83-15.8-29.87-29.09-60.62-38.32-93.17s-15.15-64.4-21.9-96.74c-3.46-16.59-6.93-33.19-10.39-49.78-.39-1.89-3.29-1.09-2.89.8h0Z"/>
      <path class="cls-25" d="m763.1-26.77c8.3,32.58,16.42,65.22,24.97,97.74,8.05,30.62,17.23,61.01,30.34,89.9,27.05,59.61,65.54,113.26,93.83,172.29,27.33,57.02,47.1,119.05,45.95,182.87-1.07,59.33-20.52,117.58-58.81,163.32-37.09,44.29-87.08,75.9-137.35,103.19-55.67,30.22-113.4,56.53-170.05,84.83-57.06,28.5-113.14,58.87-165.91,94.81-47.78,32.54-92.96,68.97-134.5,109.19-41.87,40.53-80.28,84.86-112.89,133.21-29.59,43.88-64.82,97.93-57.68,153.51,1.81,14.08,6.57,27.27,13.67,39.52.97,1.67,3.56.16,2.59-1.51-32.84-56.68-.73-119.1,30.19-168.69,32-51.33,70.67-98.25,113.27-141.11,40.99-41.24,85.77-78.66,133.3-112.13,51.91-36.55,107.16-67.62,163.74-96.29s115.93-55.83,172.84-85.82c49.57-26.12,98.96-55.59,138.07-96.28,38.7-40.26,62.81-91.43,70.1-146.74,7.76-58.9-3.68-118.3-24.83-173.32-22.95-59.69-57.24-113.42-88.48-168.9-16.47-29.26-30.84-59.32-41.33-91.27-10.18-31.01-17.67-62.87-25.73-94.48-4.13-16.21-8.26-32.41-12.39-48.62-.48-1.87-3.37-1.08-2.89.8h0Z"/>
      <path class="cls-41" d="m743.88-28.27c19.02,62.71,34.72,128.12,64.54,186.81,29.5,58.06,68.44,110.73,96.92,169.4,27.73,57.13,47.14,119.49,45.23,183.58-1.76,59.25-22.04,117.1-60.62,162.44-37.4,43.96-87.36,75.41-137.62,102.67-55.61,30.16-113.24,56.46-169.67,85-56.78,28.71-112.43,59.59-164.23,96.68-46.51,33.31-90,70.87-129.44,112.33-39.9,41.97-75.92,87.86-105.85,137.48-27.36,45.36-59.25,100.39-50.61,155.55,2.2,14.05,7.29,27.25,14.54,39.45.99,1.66,3.58.15,2.59-1.51-33.23-55.95-5.29-118.33,23.17-169.66,29.23-52.74,65.37-101.43,105.97-145.95,38.73-42.47,81.67-81.07,127.8-115.35,50.88-37.81,105.66-69.5,161.96-98.46,56.34-28.98,113.96-55.42,170.07-84.86,49.96-26.2,99.8-55.58,139.6-96.13s64.45-91.01,72.47-146.55c8.53-59.02-2.26-118.75-23.49-174-22.87-59.52-57.39-112.88-90.11-167.25-17.23-28.63-32.97-57.84-44.98-89.08s-20.87-62.62-30.43-94.18c-4.97-16.4-9.95-32.81-14.92-49.21-.56-1.84-3.46-1.06-2.89.8h0Z"/>
      <path class="cls-50" d="m724.65-29.77c21.72,61.33,40.49,125.12,72.07,182.3s71.18,108.77,100.24,167.13c28.22,56.68,47.77,118.77,46.12,182.66-1.54,59.57-21.78,117.9-60.36,163.66-37.38,44.34-87.48,76.1-137.92,103.57-55.84,30.42-113.77,56.85-170.37,85.78-56.9,29.08-112.55,60.59-163.71,99.03-45.64,34.29-87.77,73.23-125.29,116.26-37.85,43.4-71.28,90.85-98.37,141.71-24.85,46.67-53.15,102.42-42.99,156.94,2.62,14.04,8,27.21,15.41,39.38,1,1.65,3.6.14,2.59-1.51-33.57-55.15-9.84-117.37,15.89-170.31s59.55-104.34,97.95-150.42c36.22-43.47,77.07-83.04,121.51-118.05,50.58-39.85,105.85-72.65,162.87-102.35,56.48-29.42,114.41-56.01,170.75-85.69,50.14-26.41,100.15-56.06,139.96-96.97s64.43-91.88,72.31-147.74c8.34-59.08-2.63-118.84-24.33-173.96-23.25-59.08-58.21-111.85-92.18-165.12-17.5-27.43-33.94-55.33-47.04-85.17-13.44-30.63-24.07-62.42-35.23-93.93-5.67-16-11.33-32-17-48.01-.64-1.81-3.54-1.03-2.89.8h0Z"/>
      <path class="cls-54" d="m705.43-31.28c24.76,60.75,46.87,123.78,81.01,180.09,33.81,55.77,74.25,107.13,103.68,165.59,28.59,56.8,47.77,119.29,45.34,183.42-2.27,59.91-23.6,118.1-62.9,163.64-38.14,44.19-88.75,75.83-139.6,103.36-55.52,30.06-112.99,56.37-169.05,85.38-55.81,28.88-110.23,60.41-159.81,99.21-45.15,35.34-86.22,75.85-122.03,120.63-35.45,44.32-65.97,92.67-90.05,144.08-22.65,48.36-48.06,105.58-36.51,160.14,3.02,14.24,8.72,27.58,16.41,39.91,1.02,1.64,3.62.13,2.59-1.51-34-54.56-14.16-116.75,8.71-171.35,22.94-54.76,53.15-106.38,88.96-153.72,34.19-45.2,73.67-86.36,117.28-122.55,49.31-40.92,103.89-74.23,160.43-104.13,56.58-29.92,114.78-56.65,171.4-86.47,50.1-26.38,100.05-55.9,140.1-96.49,39.52-40.05,65.33-91.06,73.88-146.71,9.1-59.22-1.2-119.28-22.95-174.69-23.29-59.34-58.8-112.14-94.29-164.69-18.55-27.46-36.44-55.19-51.09-84.96-14.77-30.01-26.92-61.23-39.53-92.19-6.36-15.6-12.72-31.2-19.07-46.8-.72-1.76-3.62-.99-2.89.8h0Z"/>
      <path class="cls-38" d="m686.36-32.42c28.63,61.72,54.93,125.24,92.97,181.94,35.95,53.58,76.11,104.09,105.18,162.02,28.61,57,46.89,119.95,43.15,184.19-3.46,59.39-25.82,116.55-65.33,161.22-38.92,44.02-89.99,75.55-141.27,103.16-55.61,29.94-113.07,56.29-168.99,85.64-55.68,29.23-109.79,61.46-158.4,101.58-42.8,35.32-81.21,75.88-114.15,120.54-34.03,46.13-62.24,96.55-83.67,149.72-20.03,49.69-41.98,108.11-28.82,162.27,3.45,14.22,9.44,27.53,17.3,39.85,1.04,1.62,3.63.12,2.59-1.51-34.49-54.06-18.4-116.33,1.49-172.49s47.19-109.43,80.94-158.42c32.16-46.68,70.21-89.22,112.98-126.42,47.75-41.52,101.26-75.03,156.89-104.89,56.75-30.46,115.31-57.38,172.3-87.38,50.05-26.35,99.95-55.74,140.21-96,40.3-40.3,66.83-91.69,75.8-148.03s-.42-118.18-21.89-173.05c-23.49-60.05-59.87-113.21-97.08-165.43-18.94-26.58-37.63-53.22-53.44-81.82-16.3-29.49-30.06-60.29-44.22-90.84-7.32-15.78-14.64-31.57-21.96-47.35-.81-1.75-3.4-.23-2.59,1.51h0Z"/>
      <path class="cls-17" d="m667.14-33.92c31.49,60.2,60.99,121.94,100.82,177.22,37.96,52.68,79.09,102.91,108.78,161.02,28.75,56.26,46.92,118.56,43.47,182.2-3.28,60.54-26.19,118.81-66.6,164.19-39.3,44.13-90.67,75.75-142.26,103.51-55.94,30.1-113.73,56.61-169.82,86.42-54.88,29.17-108.14,61.53-155.39,102.16-42.46,36.51-79.93,78.68-111.18,125.15-31.69,47.11-56.95,98.53-75.21,152.27-9.61,28.28-18.06,57.42-23.02,86.91-4.36,25.94-5.19,52.77,1.82,78.33,3.89,14.19,10.16,27.47,18.19,39.78,1.05,1.61,3.65.11,2.59-1.51-34.92-53.49-22.64-115.74-5.96-173.25,16.7-57.56,41.11-112.8,72.9-163.63,29.67-47.43,65.72-90.79,106.97-128.59,47.1-43.17,100.75-77.59,156.74-108s114.9-57.6,171.77-87.53c50.68-26.67,101.23-56.38,141.97-97.17,40.18-40.23,66.9-91.51,76.09-147.69,9.71-59.4-.15-119.86-22.39-175.39-23.7-59.19-60.19-111.51-98.24-162.22-19.87-26.49-39.82-52.83-57.08-81.13-17.49-28.68-32.7-58.69-48.26-88.44-8.04-15.37-16.08-30.73-24.11-46.1-.9-1.71-3.49-.2-2.59,1.51h0Z"/>
      <path class="cls-31" d="m647.91-35.42c34.36,58.65,67.04,118.58,108.68,172.5,39.87,51.62,81.88,101.47,112.18,159.63,29.35,56.34,47.59,119,43.87,182.97-3.54,60.86-26.96,119.31-67.74,164.78-39.67,44.24-91.36,75.96-143.25,103.85-56.3,30.27-114.45,56.96-170.74,87.25-54.82,29.5-107.89,62.48-154.26,104.29-41.39,37.31-77.3,80.56-106.36,128.09-29.65,48.49-52.09,101.3-67.23,156.05-7.87,28.45-14.39,57.6-17.95,86.93-3.24,26.73-2.96,54.18,4.97,80.12,4.33,14.16,10.87,27.41,19.09,39.72,1.07,1.6,3.67.1,2.59-1.51-17.5-26.21-25.61-56.22-25.64-87.62-.02-29.11,5.74-58.15,12.18-86.43,13.34-58.68,34.57-115.52,64.14-167.97,27.34-48.49,61.64-92.95,101.7-131.61,46.03-44.43,99.33-79.55,155.19-110.34,56.65-31.22,115.43-58.32,172.66-88.43,50.97-26.82,101.81-56.62,142.91-97.51,40.52-40.31,67.68-91.73,77.19-148.18,10.04-59.65.31-120.49-22.29-176.21-23.78-58.63-60.41-110.37-99.33-159.81-21-26.68-42.46-52.95-61.39-81.19-18.7-27.89-35.34-57.08-52.3-86.04-8.76-14.95-17.51-29.9-26.27-44.84-.98-1.66-3.57-.16-2.59,1.51h0Z"/>
      <path class="cls-4" d="m628.69-36.92c36.77,56.4,72.14,113.92,115.03,165.98,42.75,51.88,86.94,102.47,118.33,162.4,29.72,56.74,47.51,120.08,42.8,184.51-4.42,60.51-28.58,118.21-69.47,163.12-40.53,44.53-93.05,76.38-145.69,104.53-56.73,30.34-115.24,57.24-171.7,88.12-54.57,29.84-107.1,63.55-152.33,106.53-39.91,37.92-73.89,81.97-100.5,130.15-27.45,49.69-46.95,103.57-58.89,159.04-6.22,28.91-10.99,58.46-13.06,87.98-1.91,27.29-.44,55.1,8.38,81.2,4.78,14.13,11.58,27.35,19.98,39.65,1.08,1.59,3.68.09,2.59-1.51-17.83-26.11-26.97-56.01-28.47-87.49-1.38-29.02,2.63-58.3,7.35-86.87,9.89-59.8,27.83-118.28,55.17-172.45,24.98-49.48,57.49-95.03,96.34-134.57,44.48-45.28,96.82-80.92,151.98-111.88,56.73-31.85,115.81-59.16,173.41-89.34,51.7-27.1,103.33-57.05,145.26-98.21,40.93-40.17,68.71-91.42,78.86-147.96,10.67-59.44,1.54-120.44-20.93-176.13-23.95-59.35-61.43-111.55-101.93-160.64-21.68-26.27-44.14-51.86-64.36-79.31-20.22-27.45-38.55-56.22-57.17-84.76-9.47-14.53-18.95-29.06-28.42-43.59-1.05-1.61-3.65-.11-2.59,1.51h0Z"/>
      <path class="cls-61" d="m609.47-38.42c39.86,55.19,78.6,111.24,123.72,162.34,44.42,50.3,89.14,100.33,120.93,159.94,30.51,57.2,48.34,121.33,43.06,186.48-4.92,60.81-29.9,118.54-71.31,163.38-40.8,44.18-93.28,75.89-145.88,104.01-57.06,30.5-115.89,57.56-172.51,88.9-54.19,29.99-106.27,64.08-150.44,107.83-39.33,38.95-72.12,84.33-96.81,133.87-25.5,51.16-42.15,106.36-50.93,162.78-4.62,29.7-7.63,59.9-8.11,89.96-.44,27.47,2.34,55.24,11.93,81.16,5.21,14.09,12.3,27.28,20.88,39.59,1.1,1.57,3.7.07,2.59-1.51-18.16-26.03-28.32-55.85-31.3-87.37-2.72-28.82-.48-58.13,2.5-86.84,6.33-61.21,21.01-121.65,46.31-177.86,22.87-50.81,54.01-97.76,92.15-138.4,43.29-46.14,95.11-82.24,149.89-113.41,56.07-31.91,114.62-59.09,171.78-88.93,52.43-27.38,104.88-57.47,147.62-98.91,41.39-40.13,69.89-91.31,80.59-148.1,11.32-60.06,2.4-121.85-20.59-178.13-24.32-59.55-62.56-111.74-104.39-160.11-21.86-25.27-44.71-49.66-65.74-75.64-22.03-27.22-42.28-55.82-62.78-84.2-10.19-14.11-20.39-28.23-30.58-42.34-1.12-1.55-3.72-.05-2.59,1.51h0Z"/>
      <path class="cls-46" d="m590.48-39.62c43.19,54.21,85.56,108.92,133.21,159.35,45.79,48.46,90.71,97.84,122.68,156.85,30.79,56.83,48.59,120.78,43.32,185.73-5,61.56-30.49,119.91-72.55,165.16s-93.96,76.1-146.87,104.36c-57.42,30.67-116.61,57.92-173.42,89.74-54.52,30.54-106.74,65.54-150.22,110.8-38.02,39.59-69.04,85.69-91.46,135.79-23.41,52.3-37.16,108.36-42.87,165.3-3.1,30.89-4.31,62.2-3.14,93.23,1.04,27.64,5.13,55.32,15.48,81.12,5.64,14.05,13.01,27.21,21.79,39.53,1.11,1.56,3.71.06,2.59-1.51-37.01-51.94-39.18-114.48-36.35-175.92,2.83-61.42,13.97-122.51,36.53-179.84,20.6-52.34,50.36-100.98,87.85-142.93,42.56-47.63,94.49-84.61,149.61-116.33,56.62-32.58,115.93-60.07,173.76-90.37,52.97-27.75,105.96-58.34,148.86-100.57,41.29-40.65,69.5-92.5,79.79-149.64,10.79-59.93,1.51-121.41-21.92-177.29-24.97-59.56-64.13-111.56-107.33-159.07-22.82-25.09-46.77-49.11-69.13-74.63-22.68-25.89-43.91-52.99-65.35-79.9-10.91-13.7-21.82-27.39-32.73-41.09-1.2-1.51-3.31.63-2.12,2.12h0Z"/>
      <path class="cls-6" d="m571.26-41.12c46.34,52.91,92.16,106.01,142.09,155.59,47.25,46.91,92.72,95.81,125.09,154.51,31.58,57.27,49.44,122.05,43.57,187.72-5.49,61.43-31.45,119.51-73.59,164.53-42.15,45.02-96.12,77.2-150.14,105.92-57.03,30.32-115.73,57.44-171.94,89.3-54.54,30.91-106.63,66.56-149.24,112.95-36.75,40.01-66.05,86.54-86.44,136.88-21.8,53.81-32.93,111.28-35.62,169.19-1.5,32.21-.83,64.73,2.09,96.85,2.47,27.06,7.61,53.98,18.2,79.12,6.2,14.72,14.14,28.52,23.53,41.43,1.12,1.55,3.73.05,2.59-1.51-37.71-51.83-43.36-114.64-44.06-176.79-.71-62.46,7.06-125.1,27.48-184.3,18.36-53.21,46.46-102.95,82.95-145.83,41.56-48.83,93.28-86.56,148.42-118.7,56.71-33.05,116.3-60.71,174.41-91.15,52.57-27.54,105.12-57.77,148.09-99.24s71.86-93.56,82.61-151.81c11.11-60.19,1.96-122.02-21.82-178.1-25.34-59.77-65.32-111.79-109.83-158.52-23.55-24.72-48.44-48.12-71.99-72.86-23.92-25.12-46.59-51.38-69.44-77.47-11.63-13.28-23.26-26.56-34.89-39.83-1.27-1.46-3.39.67-2.12,2.12h0Z"/>
      <path class="cls-34" d="m552.03-42.62c49.17,51.21,98.09,102.39,150.03,150.82,49.32,46,96.06,95,129.09,154.34,31.77,57.07,49.38,121.81,43.26,187.34-5.81,62.27-32.66,120.83-75.7,166.13-42.87,45.12-97.48,77.35-152.05,106.25-58.38,30.92-118.45,58.67-175.63,91.83-53.55,31.06-104.31,67.23-145.13,114.18-36.11,41.54-63.93,89.86-82.1,141.79-19.23,54.99-27.02,113.23-26.32,171.36.38,31.62,2.94,63.33,7.33,94.66,3.89,27.79,10.33,55.28,21.94,80.93,6.64,14.67,14.92,28.44,24.51,41.36,1.14,1.53,3.74.04,2.59-1.51-38.27-51.53-47.46-114.16-51.76-176.57s-.28-126.25,17.37-186.84c15.73-54,41.71-104.92,76.79-148.93,39.73-49.84,90.27-88.47,144.7-121.02,56.83-33.99,116.91-62,175.58-92.55,54.24-28.24,108.63-59.02,153.09-101.59,42.99-41.16,72.89-93.91,83.99-152.56,11.36-60,2.55-121.73-21.2-177.7-25.49-60.06-66.16-112.19-111.87-158.21-24.58-24.73-50.77-47.8-75.82-72.05-25.16-24.36-49.28-49.77-73.53-75.04-12.35-12.86-24.69-25.72-37.04-38.58-1.34-1.4-3.46.73-2.12,2.12h0Z"/>
      <path class="cls-60" d="m532.81-44.12c51.99,49.51,103.97,98.73,157.97,146.06,51.13,44.81,98.97,93.7,132.64,153.32,32.23,57.06,49.83,122.09,43.41,187.82-6.15,63.01-33.81,122.06-77.7,167.6-43.76,45.4-99.2,77.77-154.54,106.96-58.35,30.78-118.3,58.57-175.2,92.06-53.74,31.62-104.4,68.76-144.28,117.16-34.81,42.24-60.87,91.26-76.85,143.59-17.21,56.37-22.16,115.58-18.37,174.26,2.08,32.16,6.48,64.27,12.53,95.92,5.4,28.24,13.16,56.09,25.76,82.02,7.1,14.6,15.69,28.36,25.49,41.29,1.15,1.52,3.76.03,2.59-1.51-39.27-51.82-51.9-115.17-59.65-178.35-7.72-62.94-7.11-127.12,7.98-188.95,13.3-54.49,37.25-106.21,70.87-151.16,38.61-51.63,89.18-91.51,143.96-124.8,56.46-34.32,116.38-62.39,174.96-92.79,54.63-28.36,109.46-59.07,154.61-101.47,43.93-41.26,74.89-94.23,86.66-153.54,11.96-60.28,3.5-122.53-20.48-178.83-25.83-60.64-67.51-113.1-114.72-158.54-24.65-23.73-51.02-45.58-76.55-68.33-27.17-24.22-53.42-49.43-79.78-74.53-13.07-12.44-26.13-24.88-39.2-37.33-1.4-1.33-3.52.79-2.12,2.12h0Z"/>
      <path class="cls-63" d="m513.59-45.62c54.06,47.16,108.27,93.91,163.69,139.47,52.26,42.96,100.86,90.58,135.55,149.22,34.04,57.54,52.86,123.64,46.65,190.75-5.91,63.79-33.89,123.64-78.24,169.74-44.24,45.98-100.41,78.68-156.4,108.21-59.1,31.17-119.84,59.32-177.24,93.62-54.02,32.28-104.62,70.5-143.52,120.45-34.15,43.84-58.68,94.68-72.36,148.51-14.51,57.08-16.3,116.41-9.43,174.76,3.82,32.45,10.02,64.66,17.73,96.4,7.08,29.16,16.45,57.83,30.5,84.43,7.42,14.03,16.12,27.27,25.82,39.83,1.18,1.53,3.29-.61,2.12-2.12-40.68-52.63-56.69-117.53-67.82-181.93-10.82-62.58-13.35-126.91-.83-189.42,11.14-55.6,33.55-108.76,66.47-154.99,37.78-53.08,88.47-93.87,143.63-127.74,57.03-35.01,117.74-63.4,177.02-94.26,55.2-28.73,110.59-59.94,155.92-103.16,43.82-41.78,74.49-95.43,85.8-155.12s2.02-125.06-23.72-182.01c-26.83-59.37-69.08-110.54-116.94-154.2-26.16-23.86-54.2-45.58-81.46-68.14-27.44-22.7-54.16-46.24-81-69.65-13.27-11.58-26.55-23.16-39.82-34.74-1.45-1.26-3.58.85-2.12,2.12h0Z"/>
      <path class="cls-24" d="m494.36-47.12c55.39,44.34,111.01,88.25,167.28,131.46,55.49,42.6,106.89,90.68,143.22,151.11,34.63,57.63,53.53,124.08,47.03,191.53-6.22,64.55-35.07,124.88-80.26,171.22-45.12,46.27-102.15,79.1-158.91,108.92-59.43,31.23-120.47,59.6-177.88,94.54-53.35,32.47-102.95,71.15-140.5,121.55-33.72,45.25-56.88,97.82-68.5,152.99-12.25,58.15-11.13,117.98-1.37,176.42,5.56,33.28,13.7,66.15,23.27,98.49,8.63,29.18,19.32,57.82,34.27,84.39,7.85,13.96,16.84,27.19,26.75,39.76,1.19,1.52,3.3-.62,2.12-2.12-41.48-52.63-61.04-117.24-75.67-181.68-14.34-63.17-20.46-128.67-10.42-192.97,8.79-56.26,29.23-110.51,60.92-157.9,36.37-54.38,86.47-96.25,141.54-130.73,56.97-35.67,117.93-64.29,177.5-95.21,55.95-29.04,112.17-60.4,158.36-103.89,44.62-42.02,76.11-96.08,87.82-156.48,12.01-61.94,2.45-125.68-23.66-182.83-27.6-60.43-71.55-112.21-121.52-155.42-25.98-22.46-53.78-42.72-81.06-63.56-29.14-22.27-57.7-45.28-86.33-68.2-13.96-11.18-27.93-22.35-41.89-33.53-1.49-1.19-3.63.91-2.12,2.12h0Z"/>
      <path class="cls-44" d="m475.45-48.39c59.13,43.47,118.81,86.1,178.23,129.17,57.32,41.54,109.64,90.28,146,151.66,34.38,58.04,52.09,125.16,44.11,192.64-7.67,64.86-38.14,124.59-84.41,170.41-46.56,46.11-104.68,78.8-162.36,108.87-60.27,31.42-122.06,60.32-179.66,96.59-52.7,33.18-100.96,73.19-136.42,124.88-31.77,46.31-52.45,99.68-61.39,155.05-9.55,59.13-5.3,119.28,7.5,177.6,7.23,32.92,16.99,65.28,28.02,97.12,10.25,29.58,22.38,58.57,38.43,85.51,8.27,13.88,17.56,27.09,27.68,39.69,1.21,1.51,3.32-.63,2.12-2.12-42.81-53.29-66.01-118.45-84.06-183.61-17.08-61.68-26.42-125.95-19.89-189.91,5.86-57.41,24.01-113.48,54.33-162.67,34.47-55.93,83.57-99.27,138.41-134.61,57.21-36.87,118.93-65.98,179.28-97.19,56.75-29.35,113.85-60.79,161.08-104.41,45.27-41.81,77.72-95.66,90.29-156.25,13.05-62.9,3.75-127.99-23.1-186.08-28.05-60.67-72.86-112.45-124.09-154.8-27.14-22.44-56.29-42.31-85.01-62.62-30.16-21.32-59.86-43.28-89.61-65.16-14.66-10.78-29.31-21.55-43.97-32.33-1.56-1.14-3.06,1.46-1.51,2.59h0Z"/>
      <path class="cls-14" d="m456.22-49.89c61.41,41.51,123.54,81.97,184.83,123.63,58.42,39.7,111.55,87.37,148.81,148,35.72,58.12,54.31,125.78,46.6,194.07-7.42,65.64-38.23,126.22-84.98,172.59-47.08,46.69-105.92,79.7-164.27,110.12-60.14,31.35-121.78,60.25-179.13,96.65-53.22,33.78-101.78,74.73-136.59,127.83-31.08,47.41-50.3,101.89-57.42,158.05-7.75,61.1-.61,122.75,15.3,182.02,8.86,33,20.28,65.29,32.89,97.03,11.73,29.54,25.12,58.46,41.99,85.46,8.89,14.23,18.72,27.81,29.34,40.79,1.22,1.49,3.34-.64,2.12-2.12-43.79-53.5-70.48-118.23-91.9-183.37-20.47-62.26-33.24-127.59-29.23-193.34,3.56-58.38,19.92-115.92,49.35-166.57,33.19-57.11,81.85-101.45,136.69-137.39,57.15-37.45,119.1-66.76,179.7-98.07s116.11-61.77,164.19-106.25c46.09-42.65,78.99-97.71,91.25-159.57,12.5-63.05,2.59-128.05-25.01-185.83-28.82-60.34-74.49-111.57-126.79-152.66-27.95-21.96-57.96-41.13-87.69-60.56-31.2-20.39-62.03-41.35-92.91-62.22-15.21-10.28-30.42-20.56-45.63-30.84-1.6-1.08-3.11,1.51-1.51,2.59h0Z"/>
      <path class="cls-10" d="m437-51.39c63.64,39.57,128.14,77.93,191.36,118.16,60.5,38.5,115.31,86.05,153.57,147.36,36.31,58.19,54.97,126.24,46.95,194.86-7.81,66.87-39.88,128.2-87.97,174.94s-107.93,79.89-167.1,110.61c-60.91,31.63-123.3,61.01-180.87,98.61-53.04,34.64-100.73,77.05-133.76,131.65-29.5,48.75-46.43,104.34-51.06,161.03-5.02,61.56,5.02,123.02,23.55,181.68,10.37,32.84,23.3,64.82,37.32,96.25s28.5,59.74,46.72,87.37c9.33,14.14,19.47,27.7,30.32,40.71,1.24,1.48,3.35-.65,2.12-2.12-45.3-54.32-75.7-119.43-100.47-185.23-23.1-61.34-38.86-126.11-37.85-191.99.91-59.23,14.95-118.27,43.03-170.58,31.17-58.06,78.48-103.63,132.68-140.26,57.68-38.98,120.81-68.95,182.54-100.79,57.85-29.84,116.18-61.44,164.79-105.31,47.51-42.88,81.91-98.43,94.95-161.42,13.09-63.22,3.61-128.65-24.15-186.7-29.09-60.84-75.65-112.18-129.16-152.61-29.39-22.2-61.12-41.08-92.6-60.12-31.65-19.14-63.02-38.73-94.44-58.25-16.33-10.15-32.65-20.3-48.98-30.45-1.64-1.02-3.15,1.57-1.51,2.59h0Z"/>
      <path class="cls-52" d="m417.78-52.89c33.74,19.3,67.46,38.63,101.22,57.88,32.75,18.67,66,36.55,98.35,55.92,61.12,36.58,116.36,82.98,155.22,143.32,37.81,58.72,57.16,128.11,48.72,197.95-8.18,67.65-41.12,129.45-90.07,176.42-49.08,47.09-109.69,80.3-169.65,111.37-61.56,31.89-124.59,61.69-182.33,100.34-52.52,35.15-99.2,78.45-130.65,133.81-28.54,50.24-43.69,107.26-46.1,164.87-2.65,63.04,10.42,125.32,31.93,184.35,23.12,63.44,53.53,126.62,91.94,182.26,9.99,14.47,20.71,28.4,32.09,41.8,1.25,1.47,3.36-.66,2.12-2.12-45.81-53.94-79.18-117.41-107.08-182.13-26.89-62.38-46.53-128.79-48.23-197.09-1.49-59.7,10.3-119.82,36.91-173.46,29.83-60.15,77.09-107.48,131.99-145.22,57.2-39.31,120.1-69.36,181.65-101.06,58.97-30.37,118.55-62.35,168.2-106.94,47.87-42.98,82.73-98.66,96.11-161.93,13.61-64.37,3.74-131.08-25.23-189.92-29.64-60.19-76.77-110.75-130.88-149.81-29.77-21.49-61.93-39.43-93.93-57.33-33.36-18.66-66.51-37.66-99.69-56.63-17.03-9.74-34.06-19.48-51.09-29.22-1.68-.96-3.19,1.63-1.51,2.59h0Z"/>
      <path class="cls-32" d="m398.55-54.39c34.68,18.25,69.35,36.52,104.05,54.73s69.37,35.34,103.28,54.4c62.37,35.06,118.64,80.9,158.23,141.14,38.4,58.43,58.04,127.77,49.79,197.7-7.99,67.74-40.86,129.78-89.65,177.01-49.07,47.51-109.92,81.01-170.08,112.26s-126.17,62.47-184.49,101.84c-53.31,35.99-100.36,80.57-131.05,137.7-27.76,51.68-41.27,110.11-41.66,168.63-.43,64.45,15.45,127.51,39.78,186.89,26.28,64.15,60.26,127.13,101,183.28,10.43,14.38,21.49,28.28,33.11,41.72,1.27,1.46,3.38-.67,2.12-2.12-47.63-55.08-84.75-118.94-115.96-184.53-29.57-62.14-52.07-128.67-56.29-197.77-3.7-60.57,6.2-122.15,31.87-177.34,28.42-61.11,75.02-109.46,129.8-147.81,57.56-40.29,121.25-70.75,183.54-102.85,60.02-30.92,120.73-63.44,171.11-109.03,47.49-42.98,82.14-98.57,95.54-161.54s3.71-132.2-26.04-191.28c-30.35-60.27-78.54-110.62-133.9-148.62-31.17-21.39-64.84-38.81-98.37-56.14s-68.6-35.82-102.84-53.83c-17.12-9.01-34.24-18.02-51.37-27.03-1.71-.9-3.23,1.69-1.51,2.59h0Z"/>
      <path class="cls-45" d="m379.33-55.89c36.15,17.49,72.29,35,108.46,52.47,33.83,16.34,68.05,31.99,101.4,49.28,65.5,33.96,124.67,79.57,166.2,141.31,39.49,58.72,59.54,128.86,50.94,199.6-8.34,68.53-42.12,131.03-91.77,178.5-50.65,48.43-113.32,82.34-175.09,114.29s-126.56,62.8-184.51,103.09c-52.87,36.76-98.74,82.6-127.59,140.75-26.29,53.01-37.69,112.49-35.8,171.47,2.06,64.4,20.18,126.75,46.44,185.27,29.5,65.75,67.51,129.31,111.15,186.66,10.87,14.28,22.25,28.16,34.12,41.64,1.28,1.45,3.39-.68,2.12-2.12-49.11-55.79-89.65-119.25-124.04-185.03-32.4-61.98-57.98-128.74-64.97-198.76-6.02-60.33,1.35-122.17,24.76-178.31,26.21-62.87,71.89-113.27,126.66-152.84,57.85-41.79,122.56-72.88,185.81-105.43,60.4-31.09,121.58-63.54,172.65-108.96,48.79-43.4,84.66-99.6,98.61-163.78,14.26-65.6,3.99-133.76-26.62-193.28-31.51-61.27-81.73-111.97-139.37-149.07-31.28-20.13-64.9-36.3-98.41-52.3-35.47-16.93-70.85-34.07-106.23-51.2-17.8-8.61-35.6-17.23-53.4-25.84-1.73-.84-3.25,1.75-1.51,2.59h0Z"/>
      <path class="cls-57" d="m360.11-57.39c36.6,16.27,73.19,32.56,109.79,48.82,35.94,15.96,72.28,31.2,107.67,48.37,66.22,32.12,125.98,76.57,168.29,137.54,40.83,58.84,61.7,129.74,53.03,201.36s-42.79,132.48-93.13,180.35c-51.04,48.54-114.05,82.55-176.15,114.68s-128.88,64.03-187.46,105.69c-52.72,37.5-97.68,84.32-125.07,143.52-25.42,54.95-34.91,116.21-30.71,176.41,4.53,64.91,25.23,127.19,53.79,185.32,32.31,65.76,73.33,128.33,118.79,185.73,11.79,14.89,24.05,29.41,36.73,43.56,1.29,1.44,3.41-.69,2.12-2.12-50.67-56.56-94.62-119.54-132.13-185.52-34.73-61.08-63.01-127.09-73.1-197.05-8.89-61.66-3.84-125.64,18.38-184.07,24.47-64.36,69.18-116.31,124.09-156.94,113.52-84,255.86-123.29,362.35-217.48,49.46-43.75,85.98-100.6,100.04-165.54,14.28-65.96,3.81-134.44-27.48-194.04-32.07-61.07-83.08-111.45-141.61-147.34-33-20.23-68.47-35.97-103.83-51.54-36.48-16.06-72.89-32.27-109.31-48.47-17.87-7.94-35.73-15.89-53.6-23.83-1.75-.78-3.28,1.81-1.51,2.59h0Z"/>
      <path class="cls-36" d="m341.24-58.74c36.98,15.1,73.95,30.2,110.93,45.29s77.37,30.57,115.17,47.82c67.68,30.89,128.72,75.32,171.58,136.89,41.7,59.89,62.1,132.47,51.78,205.23-9.83,69.31-45.51,131.7-96.56,178.99-52.35,48.5-116.34,82.49-179.32,114.97-63.44,32.72-128.35,64-186.2,106.22-52.72,38.47-96.79,86.84-122.52,147.39-23.92,56.3-31.21,118.59-24.79,179.21,7,66.08,30.48,128.89,61.7,187.2,35.35,66.02,79.56,127.94,127.28,185.54,12.25,14.79,24.88,29.27,37.82,43.47,1.3,1.43,3.42-.7,2.12-2.12-52.61-57.72-100.26-120.58-140.99-187.24-36.85-60.3-67.55-125.66-80.39-195.57-11.53-62.76-8.84-128.61,12.21-189.12,22.83-65.61,66.68-119.03,121.65-160.64,113.56-85.96,257.04-125.07,364.85-219.35,50.63-44.28,88.14-101.99,102.47-168.16s3.41-136.13-29.06-196.05c-33.12-61.1-85.46-111.01-145.37-145.62-33.37-19.28-69.1-33.96-104.74-48.42-38.37-15.56-76.7-31.22-115.04-46.87-17.92-7.32-35.85-14.64-53.77-21.96-1.79-.73-2.56,2.17-.8,2.89h0Z"/>
      <path class="cls-8" d="m322.02-60.24c38.94,14.58,77.88,29.16,116.82,43.74,37.6,14.07,75.55,27.43,112.58,42.95,69.53,29.16,132.53,72.3,177.16,133.92s64.28,130.74,55.32,203.4c-8.75,70.96-44.75,135.22-96.65,183.72-53.04,49.58-118.24,84.11-182.29,117.15s-130.74,65.18-189.15,108.84c-52.28,39.08-95.27,88.3-119.63,149.39-22.92,57.49-28.45,120.76-20.24,181.84,9.15,68.08,35.66,132.42,69.93,191.55,38.14,65.8,85.11,126.75,134.75,184.22,13.03,15.08,26.35,29.91,39.9,44.53,1.32,1.42,3.43-.71,2.12-2.12-54.31-58.58-105.3-120.85-149.16-187.69-39.56-60.29-73.05-125.99-88.57-196.83-13.92-63.54-13.39-130.77,6.41-193.02,21.03-66.14,63.52-120.67,117.86-163.05,114.34-89.18,260.85-127.93,370.48-223.9,51.17-44.8,89.05-103.35,103.2-170.33,14.3-67.68,2.36-137.76-31.54-197.84-34.24-60.68-87.73-109.75-148.72-142.83-34.48-18.7-71.3-32.58-107.98-46.25s-76.45-28.57-114.66-42.88c-19.05-7.13-38.1-14.26-57.15-21.4-1.81-.68-2.59,2.22-.8,2.89h0Z"/>
      <path class="cls-62" d="m302.8-61.74c39.28,13.46,78.56,26.93,117.84,40.39,38.83,13.31,78.01,25.89,116.3,40.72,71.18,27.57,135.85,69.48,182.01,131.22,45.01,60.21,67.46,134.76,56.94,209.76-9.95,70.97-46.9,134.59-99.34,182.71-108.76,99.8-257.94,138.54-374.15,227.77-52.54,40.34-94.85,91.59-117.33,154.43-21.09,58.98-24.2,123.17-13.72,184.64,24.96,146.41,124.42,269.72,221.2,376.91,13.3,14.73,26.8,29.29,40.42,43.74,1.33,1.41,3.45-.72,2.12-2.12-55.4-58.77-109.14-119.61-155.67-185.73-42.36-60.19-78.92-126.12-97.49-197.78-16.53-63.79-18.81-131.93-1.26-195.77,18.52-67.39,59.27-124,113.19-167.78,114.25-92.76,263.15-131.17,374.96-227.44,52.47-45.18,91.73-104.39,106.38-172.6,14.7-68.43,2.59-139.32-32.27-199.82s-91.24-110.83-154.52-142.81c-34.46-17.41-71.03-30.1-107.48-42.58-39.53-13.53-79.07-27.08-118.6-40.62-19.57-6.71-39.15-13.42-58.72-20.13-1.83-.63-2.62,2.27-.8,2.89h0Z"/>
      <path class="cls-64" d="m283.57-63.25c44.06,13.8,88.12,27.59,132.18,41.39s85.61,25.64,127.14,41.92c70.1,27.48,133.34,72.18,176.47,134.6,40.82,59.08,59.53,130.63,48.46,201.99s-51.55,137.9-107,186.34c-101.66,88.8-235.01,129.02-345,205.39-54.29,37.7-101.49,85.02-128.88,145.99-28.27,62.92-34.25,133.63-23.51,201.34,24.89,156.99,135.16,284.64,240.38,396.62,13.77,14.65,27.66,29.2,41.57,43.71,1.34,1.4,3.46-.73,2.12-2.12-58.42-60.96-116.78-122.5-166.94-190.58-46.61-63.26-86.85-133.1-106.28-209.78-17.68-69.78-18.37-144.69,5.48-213.12,23.64-67.83,70.97-121.46,128.5-163.05,107.9-78.01,239.27-117.97,342.94-202.39,55-44.79,97.48-103.59,114.61-173.11,16.41-66.61,7.46-136.54-24.59-197.09-32.56-61.53-85.58-111.2-146.48-144.22-36.66-19.88-76.33-33.29-115.97-45.84-43.23-13.69-86.54-27.12-129.81-40.67-21.53-6.74-43.06-13.48-64.59-20.22-1.85-.58-2.64,2.32-.8,2.89h0Z"/>
    </g>
    <g>
      <path class="cls-37" d="m740.88-34.32C607.25-4.11,471.83,49.73,370.75,144.86c-49.26,46.36-95.52,106.08-106.22,174.6-5.12,32.81-1.02,68.03,18.83,95.53,18.94,26.24,48.96,41.57,78.04,53.89,35.09,14.86,70.85,27.69,105.3,44.11s70,36.03,103.1,57.29c31.49,20.23,62.37,42.12,90.07,67.36,26.52,24.16,50.88,52.47,63.88,86.34,28.68,74.73-7.02,154.94-46.23,218.51-40.95,66.39-93.24,125.06-148.03,180.26-116.95,117.83-244.09,225.41-370.99,332.25-15.84,13.34-31.7,26.66-47.56,39.98-1.48,1.24.65,3.36,2.12,2.12,127.81-107.38,255.83-214.81,376.19-330.61,55.2-53.11,109.07-108.18,154.9-169.73,43.03-57.79,85.96-125.94,92.23-199.49,2.91-34.17-3.98-67.9-20.98-97.73-17.21-30.18-42.25-55.32-68.78-77.39-58.17-48.36-124.79-87.5-193.5-118.79-33.37-15.2-68.2-26.83-101.53-42.04-32.8-14.97-64.23-35.53-77.95-70.45-28.03-71.35,16.41-150.53,61.38-203.96C424.63,80.41,558.22,17.94,690.01-18.5c17.12-4.73,34.35-9.02,51.67-12.93,1.88-.43,1.09-3.32-.8-2.89h0Z"/>
      <path class="cls-13" d="m726.13-35.35c-127.88,29.75-257.8,81.94-353.47,174.54-47.2,45.68-89.86,104.15-98.39,170.91-4.05,31.69.67,65.22,19.23,91.88,18.5,26.56,48.22,42.53,77.11,55.35,34.24,15.19,69.2,28.32,102.78,45.04s68.36,36.82,100.53,58.52,61.19,43.47,88.2,69.27c25.31,24.18,48.38,52.35,60.27,85.69,26.42,74.1-10.66,152.41-50.21,214.23-42.38,66.25-95.6,124.78-150.05,181.21-114.65,118.83-234.87,232.14-356.15,344.13-14.74,13.61-29.5,27.21-44.25,40.81-1.42,1.31.7,3.43,2.12,2.12,121.79-112.21,242.64-225.29,359.24-342.92,54.41-54.89,108.62-110.59,155.47-172.22,43-56.55,86.49-122.5,94.5-194.81,3.71-33.46-2.13-66.73-18.07-96.45-15.77-29.39-39.12-54.16-63.99-76.05-56.33-49.56-121.41-90.06-188.95-122.41-32.86-15.74-67.26-27.85-100.15-43.45-31.06-14.73-61-34.4-75.57-66.82-31.01-69,8.75-148.7,52.16-202.36C422.82,76.63,551.56,15.71,678.15-19.96c16.16-4.55,32.43-8.7,48.78-12.5,1.88-.44,1.08-3.33-.8-2.89h0Z"/>
      <path class="cls-9" d="m711.37-36.38c-124.8,29.92-252.55,82.18-343.03,176.21-44.95,46.71-83.46,106.64-85.15,173.35-.81,31.8,8.34,63.92,29.92,87.86,21.12,23.42,50.5,37.67,78.9,50.18,34.01,14.97,68,29.42,100.73,47.14,33.29,18.03,65.36,38.29,95.89,60.67,29.95,21.95,59.3,45.64,84.62,72.9,23.22,25,43.2,54.13,51.24,87.72,17.83,74.52-23.89,149.57-64.73,208.81-44.04,63.89-97.34,120.71-150.46,177.01-110.81,117.44-222.01,234.44-335.13,349.65-13.87,14.13-27.76,28.25-41.65,42.37-1.36,1.38.76,3.5,2.12,2.12,112.96-114.8,224.21-231.11,335.03-347.96,53.32-56.22,107.75-111.83,156.06-172.51,44.11-55.39,89.32-118.7,102.52-189.75,5.88-31.66,3.91-64.25-8.61-94.11-12.6-30.04-33.74-55.75-56.83-78.35-52.66-51.54-115.83-93.86-181.02-127.78-31.76-16.53-64.85-29.74-97.37-44.6-30.55-13.96-62.14-31.23-80.42-60.55-39.56-63.44-8.55-145.55,31.43-200.42C413.07,76.99,539.98,15.35,663.61-20.66c16.08-4.68,32.28-8.93,48.56-12.84,1.88-.45,1.08-3.34-.8-2.89h0Z"/>
      <path class="cls-1" d="m696.62-37.41c-121.08,29.98-246.01,81.99-330.91,176.71-42.82,47.77-77.35,109.84-71.91,176.02,2.5,30.43,14.54,59.26,36.71,80.58,22.9,22.03,52.45,35.72,81.1,48.58,69.18,31.04,134.58,67.48,193.8,115.19,50.97,41.07,109.15,92.25,119.15,160.73,10.91,74.74-34.07,146.93-76.33,204.49-45.74,62.29-99.47,118.1-151.73,174.84-107.39,116.59-210.11,237.47-315.19,356.14-12.66,14.3-25.32,28.59-37.99,42.88-1.28,1.44.84,3.57,2.12,2.12,52.17-58.88,104.33-117.76,156.19-176.91,51.81-59.09,102.99-118.74,155.72-177,52.23-57.71,106.87-113.44,156.54-173.42,44.81-54.1,90.88-114.53,108.79-183.67,8.03-31.01,9.11-63.87-.97-94.55-9.85-29.99-28.74-56.16-50-79.13-48.04-51.93-107.62-95.03-168.88-129.93-31.67-18.04-64.66-32.88-97.77-48.01-29.48-13.47-60.26-28.73-81.43-54.06-47.91-57.32-26.19-142.47,10.66-199.22C404.74,76.47,530.23,14.27,650.56-21.76c15.51-4.64,31.14-8.87,46.86-12.76,1.87-.46,1.08-3.36-.8-2.89h0Z"/>
      <path class="cls-28" d="m681.87-38.45c-118.25,30.3-241.68,82.81-320.46,179.92-39.24,48.37-67.11,110.86-55.66,174.29,5.62,31.16,21.86,58.13,46.52,77.9,25,20.04,54.78,33,83.58,46.49,67.12,31.44,129.7,71.39,185.25,120.57,49.88,44.16,103.08,98.62,102.74,169.84-.35,72.93-47.18,139.46-90.42,194.49-47.47,60.42-101.57,115.2-152.77,172.38-103.05,115.1-196.75,238.54-292.59,359.62-11.33,14.31-22.65,28.62-33.97,42.93-1.19,1.5.92,3.64,2.12,2.12,47.14-59.58,94.3-119.15,141.55-178.65,48.07-60.53,95.87-121.31,146.31-179.9,50.08-58.18,103.71-113.14,153.97-171.14,45.52-52.53,92.26-109.71,116.11-175.88,10.82-30.01,16.05-62.46,10.22-94.12-5.61-30.49-21.43-57.87-40.52-81.89-21.38-26.89-46.95-50.58-73.11-72.73-27.33-23.15-56.29-44.35-86.65-63.35s-63.01-35.81-95.94-51.19c-29.39-13.73-59.99-27.77-83.74-50.43-53.14-50.69-44.19-133.93-11.97-193.4,29.65-54.72,77.48-98.69,129.09-132.41,54.05-35.31,114.17-60.82,175.72-79.82,15.03-4.64,30.18-8.87,45.41-12.78,1.87-.48,1.08-3.37-.8-2.89h0Z"/>
      <path class="cls-18" d="m667.12-39.48c-114.97,30.57-236.15,83.39-308.4,182.25-36.54,50-57.97,115.79-38.59,176.93,20.14,63.52,83.02,88.17,137.57,115.64,66.4,33.44,127.38,76.99,180.37,129.15,23.62,23.24,46.48,48.13,62.81,77.17,17.15,30.5,24.3,64.43,19.12,99.18-10.6,71.16-59.19,133.2-104.1,186.71-48.97,58.34-102.96,112.23-152.74,169.87-97.71,113.13-181.97,237.73-267.64,360.01-10.3,14.7-20.58,29.4-30.87,44.1-1.11,1.59,1.49,3.09,2.59,1.51,42.43-60.66,84.9-121.29,127.95-181.52,44.21-61.85,88.65-123.63,136.81-182.49,47.55-58.1,99.58-112.06,149.76-167.83,47.32-52.59,96.41-108.68,124.72-174.3,12.32-28.55,20.23-59.67,17.87-90.96s-15.28-59.6-32.9-84.85c-18.54-26.57-41.51-49.97-65.12-72.03-25.54-23.86-52.82-45.89-81.61-65.71-30.07-20.7-61.69-38.96-94.44-55.06-28.89-14.2-59.03-27.48-84.27-47.83-26.36-21.25-43.06-50.29-48.13-83.78-5.32-35.17.98-71.9,15.16-104.32,24.45-55.91,70.75-101.36,120.35-135.52,51.75-35.64,110-61.21,169.67-80.36,14.84-4.76,29.8-9.09,44.86-13.1,1.86-.5,1.07-3.39-.8-2.89h0Z"/>
      <path class="cls-11" d="m652.36-40.51c-111.1,30.74-229.75,83.68-294.88,183.71-33.36,51.24-47.46,119.1-22.14,176.83,26.7,60.87,94.03,83.16,147.88,113.31,62.24,34.84,118.56,79.33,166.96,131.71,22.58,24.43,44.13,50.97,57.41,81.75,13.71,31.79,15.36,66.09,6.8,99.5-17.76,69.32-67.81,128.15-114.16,180.58-49.56,56.07-102.72,108.82-150.66,166.34-93.88,112.63-170.02,239.51-246.45,364.26-9.25,15.09-18.47,30.2-27.7,45.31-1.01,1.65,1.58,3.16,2.59,1.51,37.69-61.73,75.46-123.4,114.4-184.35,39.34-61.58,79.47-122.79,124.06-180.73,46.28-60.12,98.29-114.97,149.81-170.53,47.56-51.29,96.89-104.59,129.47-167.06,14.35-27.52,25.23-57.54,26.91-88.76,1.63-30.24-6.69-59.29-21.42-85.54-15.83-28.22-37.55-52.86-59.93-76.03-23.79-24.61-49.38-47.47-76.62-68.2s-57.76-40.43-88.72-57.17c-28.16-15.23-57.73-28.13-84.3-46.16-28.81-19.55-50.76-45.63-60.24-79.59-9.12-32.68-7.31-68.51,2.49-100.8,17.79-58.63,62.96-107.06,111.49-142.53,49.64-36.29,106.46-62.09,164.63-81.41,14.25-4.73,28.64-9.06,43.11-13.06,1.86-.51,1.07-3.41-.8-2.89h0Z"/>
      <path class="cls-43" d="m637.61-41.54c-107.85,31.15-225,84.97-281.84,187.52-29.36,52.97-34.15,123.89-2.05,176.92,33.13,54.73,100.78,76.2,152.6,108.27,60.11,37.19,113.94,84.24,158.61,139.04,20.66,25.35,39.59,53.46,48.33,85.33,9,32.83,4.69,66.94-7.08,98.49-25.07,67.19-76.65,123.12-124.66,174.88-50.29,54.22-102.61,106.42-148.71,164.38-88.89,111.76-156.37,239.58-222.77,365.45-7.96,15.09-15.89,30.2-23.81,45.31-.9,1.71,1.69,3.23,2.59,1.51,65.79-125.46,131.03-253.24,214.29-368.25,43.45-60.02,93.34-114.23,144.31-167.84,48.34-50.85,98.64-102.2,135.56-162.29,16.87-27.46,30.99-57.54,36.17-89.59,4.65-28.81.95-57.49-10.55-84.29-12.3-28.67-31.46-53.87-51.73-77.35-22.22-25.75-46.33-49.87-72.31-71.83s-55.38-42.89-85.4-60.83c-28-16.72-57.79-30.3-85.42-47.66-27.8-17.46-52.08-39.38-65.56-69.9-13.74-31.09-16.33-67.22-10.47-100.47,10.47-59.45,51.46-109.57,97.58-146.3,47.84-38.1,104.24-64.72,161.79-84.58,13.66-4.71,27.45-9.03,41.34-13.04,1.85-.53,1.06-3.43-.8-2.89h0Z"/>
      <path class="cls-33" d="m622.86-42.57c-103.76,31.4-220.71,86.37-267.42,191.25-24.28,54.5-19.55,126,17.1,174.06,18.77,24.61,45.39,41.82,71.9,57.04,29.02,16.66,58.49,32.17,86.09,51.2,56.97,39.27,108.33,88.7,147.95,145.58,18.88,27.1,34.68,57.62,37.74,90.98,3.01,32.86-6.43,65.48-20.83,94.73-31.03,63.03-81.99,115.29-130.21,165.41-49.95,51.92-100.65,102.91-144.52,160.23-86.16,112.58-146.28,243.24-203.62,372.12-6.71,15.08-13.37,30.17-20.03,45.27-.77,1.75,1.81,3.28,2.59,1.51,55.98-126.97,112.28-256.1,190.43-371.34,41.18-60.73,89.67-115.11,140.57-167.77,48.22-49.88,98.58-99.04,138.57-156.03,34.85-49.67,62.71-110.48,44.7-171.87-8.87-30.26-26.39-57.23-45.5-81.98-19.68-25.49-41.3-49.53-64.71-71.65-24.74-23.39-51.58-44.53-79.92-63.4s-56.35-32.86-84.5-49.47-56-36.59-73.22-65.5-23.6-63.17-22.09-96.37c2.78-60.99,39.23-113.45,84.28-152.19,45.03-38.71,99.5-65.52,155.04-85.58,13.34-4.82,26.82-9.23,40.39-13.33,1.84-.56,1.06-3.45-.8-2.89h0Z"/>
      <path class="cls-55" d="m608.1-43.6c-53.88,17.16-106.97,39.61-153.28,72.47-43.07,30.56-83.01,72.79-98.72,124.36-17.41,57.13-3.44,127.48,38.56,170.7,21.74,22.37,49.09,38.32,75.92,53.76,29.41,16.93,58.14,34.53,84.99,55.37,53.09,41.21,102.13,93.19,135.35,151.95,16.09,28.47,26.57,59.93,24.21,92.96-2.35,32.93-15.78,64.06-32.66,92.04-35.93,59.57-87.24,109.21-135.9,158.27-50.16,50.58-99.7,101.41-141.59,159.23-81.5,112.46-133.38,243.79-180.69,373.42-5.59,15.31-11.11,30.64-16.63,45.98-.65,1.82,2.24,2.6,2.89.8,46.41-128.94,94.11-259.86,168.05-376.05,39.09-61.42,86.38-116.04,137.2-167.96,48.14-49.18,98.77-96.69,140.96-151.27,35.9-46.44,69.24-103.97,60.23-164.98-4.46-30.17-18.62-57.95-35.26-83.13-17.46-26.44-37.58-51.36-59.25-74.46-22.98-24.49-48.18-46.77-75.14-66.79s-55.49-36.41-84.28-53.2c-27.29-15.92-55.04-33.21-75.15-58.05s-31.74-58.39-34.83-91.29c-11.99-127.67,111.9-207.86,216.18-247.46,13.08-4.97,26.32-9.52,39.65-13.77,1.83-.58,1.05-3.48-.8-2.89h0Z"/>
      <path class="cls-30" d="m593.35-44.63c-52.16,17.56-103.61,40.35-147.49,74.04-41.2,31.64-78.93,76.72-86.99,129.6-9.02,59.16,12.49,123.78,57.52,163.42,23.07,20.31,50.02,35.52,76.25,51.28,29.12,17.5,56.91,36.85,82.69,59.02,26.05,22.39,49.78,47.36,70.98,74.38,20.31,25.89,39.78,53.66,53.15,83.85,13.75,31.05,18.7,64.19,11.13,97.53-7.11,31.31-22.88,60.04-41.15,86.17-39.98,57.2-92.25,105.17-141.7,153.96s-97.25,99.15-136.76,156.69c-77.63,113.04-121.74,245.45-159.32,376.17-4.47,15.55-8.86,31.11-13.24,46.68-.52,1.86,2.37,2.66,2.89.8,36.59-130.04,75.49-261.89,144.72-378.92,36.19-61.17,81.13-115.63,130.8-166.27,48.28-49.22,99.74-95.6,144.49-148.17,37.84-44.46,75.82-98.62,76.09-159.44.14-30.4-10.46-59.52-24.92-85.88-15.19-27.71-34.09-53.68-54.29-77.93-42.47-50.95-93.97-91.3-150.69-125.2-27.04-16.16-54.79-32.28-77.34-54.6s-37.22-51.03-44.39-81.86c-7.64-32.89-8.68-68.04,3.7-99.91,10.04-25.85,25.83-49.18,44.88-69.23,38.7-40.71,89.56-68.44,141.22-89.16,12.7-5.1,25.57-9.77,38.54-14.13,1.82-.61,1.04-3.51-.8-2.89h0Z"/>
      <path class="cls-48" d="m578.6-45.66c-49.82,17.83-99.03,40.72-139.97,74.76s-73.39,80.37-74.22,133.94c-.47,30.2,6.76,61.55,19.27,88.98,12.94,28.38,33.09,51.36,57.68,70.28,24.37,18.75,51.32,33.67,76.98,50.49,28.75,18.85,55.76,40.46,80.28,64.56,24.44,24.02,46.23,50.67,65.29,79.13,18.36,27.41,35.75,56.65,44.37,88.75,17.71,65.9-15.75,127.34-56.14,177.34-42.54,52.67-93.65,97.85-142.07,144.92s-94.72,97.22-131.98,154.44c-74.39,114.25-111.01,248.08-139.04,380.1-3.35,15.78-6.6,31.59-9.84,47.39-.39,1.88,2.5,2.69,2.89.8,27-131.64,57.38-265.04,122.81-383.73,33.49-60.74,76.22-114.93,124.64-164.42,47.09-48.14,97.87-92.6,143.77-141.93,40.04-43.03,81.62-93.68,91.3-153.51s-24.61-119.93-59.7-168.28c-38.32-52.79-86.64-97.23-141.54-132.34-26.73-17.09-54.65-32.69-79.03-53.16-24.85-20.86-43.47-47.08-54.27-77.73-10.87-30.83-16.82-65.94-9.77-98.27,5.84-26.79,20.19-52,37.57-72.97,34.81-42,83.65-70.42,133.2-91.67,12.61-5.41,25.41-10.34,38.32-14.97,1.8-.65,1.03-3.55-.8-2.89h0Z"/>
      <path class="cls-42" d="m563.85-46.69c-90.07,34.51-206.42,103.12-191.22,216.34,3.98,29.64,13.81,59.59,29.1,85.35,15.46,26.05,37.34,46.45,61.72,64.08,25.75,18.62,53.46,34.34,79.08,53.16,27.63,20.29,53.33,43.39,76.14,69s41.3,52.02,57.94,80.74c16.72,28.86,31.71,60.01,35.43,93.55,7.33,66.15-34.74,125.14-76.66,171.79-44.82,49.87-96.05,93.48-144.2,140.01-48.78,47.13-93.52,97.65-128.6,155.94-69.87,116.1-98.33,250.64-116.67,383.32-2.05,14.81-4,29.64-5.94,44.47-.25,1.91,2.75,1.89,3,0,17.3-132.08,39-265.98,99.94-386.01,31.31-61.67,72.71-116.81,120.88-166.29,46.66-47.92,97.64-91.37,144.75-138.82,41.97-42.28,85.97-90.68,101.93-149.61,16.54-61.06-10.87-118.73-43.12-169.41-34.05-53.52-78.48-99.61-130.21-136.26-25.78-18.27-53.38-33.88-78.61-52.93-26.3-19.86-48.12-43.74-62.42-73.65-13.77-28.79-23.07-62.65-21.91-94.72.99-27.49,12.48-54.15,28.01-76.53,30.41-43.82,77.79-73.31,125.48-95.2,12.14-5.57,24.49-10.67,36.97-15.45,1.78-.68,1.01-3.59-.8-2.89h0Z"/>
      <path class="cls-58" d="m549.09-47.72c-46.2,19.1-92.4,43.34-127.03,80.17-16.34,17.38-29.66,37.66-37.56,60.25-9.56,27.34-8.36,54.72-.88,82.44,7.81,28.93,19.76,57.27,37.57,81.51s41.99,43.48,66.83,60.73c27.16,18.86,55.16,36.29,80.55,57.59,26.12,21.9,50.04,46.53,70.64,73.7,19.84,26.16,36.9,54.56,50.88,84.27,14.6,31.01,25.13,64.9,21.69,99.55-6.31,63.54-52.61,116.81-95.59,160.32-46.81,47.39-98.3,89.83-146.04,136.23-47.93,46.59-90.66,97.72-122.98,156.46-64,116.34-84.62,249.06-93.51,379.89-1.06,15.64-2,31.28-2.92,46.93-.11,1.93,2.89,1.92,3,0,7.76-131.46,20.65-264.8,76.23-385.97,28.13-61.32,66.73-116.84,113.13-165.73,45.42-47.87,96.09-90.26,144.1-135.43,44.34-41.72,90.88-87.41,114.89-144.49,10.89-25.89,15.75-53.64,12.06-81.63-4.17-31.65-17.41-61.3-32.35-89.21-30.56-57.14-72.44-106.99-123.42-146.99-49.29-38.67-109.47-65.86-143.47-120.88-16.43-26.58-28.14-57.87-32.96-88.75-4.53-29.06,1.7-57.28,15.86-82.89,25.39-45.9,71.3-76.81,117.28-99.5,11.41-5.63,23.05-10.8,34.81-15.67,1.76-.73.99-3.63-.8-2.89h0Z"/>
      <path class="cls-53" d="m533.98-48.6c-47.04,21.27-90.48,52.41-120.57,94.86-7.98,11.26-14.94,23.24-20.69,35.79-2.41,5.26-4.61,10.62-6.61,16.05-2.53,6.89-2.36,11.86-1.79,19.14,2.28,29.26,9.67,57.77,21.94,84.44s29.07,50.85,50.54,70.87c22.54,21.03,48.45,37.94,73.64,55.56,54.62,38.22,101.69,85.01,135.63,142.73,32.72,55.64,59.9,121.1,37.19,185.39-20.79,58.83-68.37,105.43-113.14,146.87-47.68,44.13-98.31,85.03-144.32,130.96-46.15,46.05-85.78,97.83-114.69,156.44-57.72,117.01-70.09,248.12-69.91,376.82.02,15.41.17,30.83.34,46.24.02,1.93,3.02,1.93,3,0-1.41-128.86,2.68-259.59,51.06-380.88,25.01-62.69,61.43-120.31,106.98-170.09,43.4-47.43,92.87-88.67,140.84-131.29,45.04-40.03,91.81-81.83,123.3-133.87,13.81-22.82,24.44-48.1,27.57-74.76,3.7-31.51-3.84-62.9-15.46-92.04-23.15-58.05-58.59-110.78-103.66-154.04-22.25-21.36-46.74-39.68-72.05-57.22s-52.22-35.68-73.93-58.57-38.01-51.19-48.63-80.96c-5.17-14.49-8.92-29.46-11.21-44.67-1.13-7.53-1.9-15.1-2.36-22.7-.55-8.85,2.91-16.51,6.36-24.52,21.52-49.98,61.72-89.25,108.18-116.5,10.99-6.45,22.35-12.23,33.96-17.48,1.76-.79.23-3.38-1.51-2.59h0Z"/>
      <path class="cls-12" d="m519.23-49.63c-45.39,22.67-86.22,56.09-111.51,100.64-6.4,11.27-11.72,23.16-15.9,35.42-1.68,4.93-3.75,9.75-3.35,14.94.53,6.96,2.08,14.05,3.47,20.88,5.95,29.15,16.83,57.12,31.73,82.85s34.99,48.86,58.35,68.27c23.69,19.68,49.58,36.45,74.02,55.14,52.32,39.99,95.3,91.01,124.1,150.33,14.79,30.47,27.74,63.24,31.3,97.17,3.31,31.55-3.72,62.27-17.99,90.4-28.17,55.54-76.77,98.99-122.99,139.37-47.85,41.81-97.72,81.48-142.36,126.82-45.47,46.19-83.42,98.96-110.02,158.21-53.3,118.72-58.01,249.77-49.24,377.62,1.06,15.47,2.26,30.93,3.48,46.39.15,1.91,3.15,1.93,3,0-10.14-128.36-14.43-259.03,29.25-382.28,22.13-62.44,56.02-120.36,99.77-170.12s91.37-88.71,139.73-129.98c45.98-39.23,93.53-79.05,129.39-128.15,16.06-21.99,29.63-46.28,36.72-72.71,7.91-29.53,5.8-60.1-2.22-89.36-16.25-59.28-48.81-115.45-89.93-160.86-20.84-23.01-44.13-43.46-69.07-61.9-25.32-18.73-51.77-36.08-75.22-57.2-23.19-20.89-41.64-45.94-55.63-73.8-7.45-14.82-13.58-30.28-18.18-46.23-3.78-13.12-8.75-28.73-8.22-42.47.54-13.97,9.32-29.91,15.76-42.06,6.32-11.92,13.8-23.21,22.26-33.72,16.52-20.51,36.6-38.03,58.59-52.47,10.42-6.85,21.28-12.99,32.43-18.56,1.73-.86.21-3.45-1.51-2.59h0Z"/>
      <path class="cls-19" d="m504.48-50.66c-43.45,24.34-80.79,60.3-100.54,106.61-2.58,6.06-4.86,12.24-6.82,18.53-1.65,5.31-4.53,12.1-4.5,17.69s2.87,12.51,4.36,17.98c1.82,6.68,3.85,13.31,6.11,19.86,9.66,28.01,23.44,54.76,40.56,78.95,36.3,51.29,91.21,80.99,137.68,121.52,50.14,43.72,88.69,98.44,112.24,160.69,11.89,31.43,21,64.79,18.71,98.69-2.07,30.68-14.32,59.47-30.88,85.05-33.92,52.41-83.64,93.49-131.15,133.05-48.78,40.61-98.84,80.09-142.64,126.21-43.39,45.7-78.44,98.6-102.14,157.07-48.92,120.7-45.88,251.81-28.88,378.7,2.08,15.53,4.31,31.04,6.56,46.54.28,1.9,3.17,1.09,2.89-.8-18.56-127.84-31.11-258.66,8.17-384.13,19.61-62.64,51.44-120.99,93.81-171.13,40.81-48.29,89.92-88.83,138.5-128.96,47.12-38.92,96.01-77.55,135.15-124.86,17.16-20.74,32.34-43.39,42.36-68.48,11.01-27.55,13.82-56.68,9.52-85.97-4.58-31.17-15.76-61.59-28.92-90.09s-29.4-54.95-48.87-79.25c-19.84-24.77-42.51-47.17-67.31-66.96-23.86-19.04-49.25-36.09-72.69-55.68-47.44-39.65-80.69-93.36-96.5-153.11-1.73-6.54-3.96-12.94-2.59-19.69,1.48-7.27,3.95-14.49,6.5-21.44,4.74-12.89,10.92-25.24,18.29-36.82,14.18-22.27,32.81-41.54,53.88-57.37,9.74-7.32,20.01-13.87,30.64-19.83,1.68-.94.17-3.54-1.51-2.59h0Z"/>
      <path class="cls-5" d="m489.72-51.69c-41.52,26.65-74.44,65.82-87.8,113.87-1.82,6.56-3.44,13.29-4.4,20.03-.81,5.71,2.1,11.2,3.99,16.58,4.55,12.94,9.8,25.64,15.75,38,13.06,27.11,29.42,53.02,48.85,76.03,41.05,48.62,98.65,79.09,142.88,124.45,46.23,47.43,79.17,105.73,96.02,169.79,8.86,33.67,11.99,69.19,1.79,102.95-8.48,28.08-24.22,53.49-42.54,76.18-38.9,48.19-88.78,86.75-136.86,125.24-49.44,39.58-99.4,79.21-141.86,126.46-41.81,46.53-74.11,101.21-94.53,160.34-41.92,121.35-30.91,250.08-6.44,373.77,3.02,15.26,6.19,30.49,9.38,45.72.4,1.89,3.29,1.09,2.89-.8-26.09-124.5-46.8-252.51-14.84-378.09,16.13-63.38,44.9-123.03,85.27-174.54,38.78-49.49,87.32-90.38,136.02-129.69s97.84-76.02,140.53-120.72c38.62-40.44,71.94-89.64,72.46-147.52.28-31.59-7.91-62.81-18.4-92.38-10.19-28.72-23.67-56.28-40.48-81.71-16.91-25.59-37.1-49.08-59.47-70.05s-48.11-39.39-72.58-58.59c-25.54-20.03-49.4-41.58-68.84-67.74-18.45-24.83-33.91-52.08-45.59-80.73-2.46-6.04-4.75-12.14-6.9-18.29-2.71-7.77-3.88-13.33-2.19-21.54,2.96-14.35,7.59-28.34,13.9-41.57,11.11-23.3,27.25-43.91,46.51-61.03,9.06-8.06,18.8-15.28,29-21.83,1.62-1.04.12-3.64-1.51-2.59h0Z"/>
      <path class="cls-22" d="m474.97-52.72c-38.94,29.48-65.83,71.78-72.31,120.57-.81,6.1-1.53,9.98.88,15.55,2.84,6.55,5.79,13.05,8.9,19.47,6.61,13.67,13.9,27.01,21.85,39.95,15.77,25.66,33.8,50.27,54.87,71.84,22.73,23.28,49.05,42.69,74.42,62.92,24.62,19.63,47.91,40.54,68.19,64.7,42.45,50.59,71.82,113.81,80.55,179.51,4.5,33.83.81,67.57-13.61,98.69-12.26,26.46-30.13,49.96-49.9,71.24-42.29,45.5-92.97,82.56-141.83,120.57s-98.85,77.81-139.59,125.58c-40.28,47.22-70.35,102.6-88.17,162.04-36.96,123.3-18.39,251.51,13.36,373.67,3.94,15.16,8.03,30.29,12.15,45.4.51,1.86,3.4,1.07,2.89-.8-33.48-122.94-62.15-250.14-35.65-377.42,13.07-62.77,38.81-122.33,76.58-174.21,37.1-50.96,85.28-92.57,134.35-131.58,48.21-38.34,98.57-74.38,143.54-116.62,40.34-37.89,79.69-84.3,88.68-140.72,4.86-30.52.81-61.6-6.78-91.33-7.54-29.55-18.34-58.24-32.8-85.11-14.56-27.07-32.83-52.08-53.65-74.67-21.44-23.26-45.91-43-70.7-62.52-25.17-19.82-50.32-39.84-71.53-63.99s-38.33-49.6-53.38-76.87c-6.66-12.06-12.74-24.43-18.31-37.03-3.59-8.11-3.04-14.28-1.61-23.02,1.22-7.44,2.9-14.8,5.06-22.02,7.55-25.31,21.17-48.53,39.12-67.87,7.93-8.55,16.65-16.31,25.94-23.34,1.52-1.15.03-3.76-1.51-2.59h0Z"/>
      <path class="cls-29" d="m459.91-53.51c-16.51,15.4-30.14,33.71-39.38,54.36-5.2,11.61-9.01,23.81-11.39,36.31-1.15,6.02-1.97,12.12-2.48,18.23s-1.81,13.27.64,19.1c5.27,12.53,13.79,24.6,20.99,36.09,8.55,13.65,17.68,26.93,27.28,39.87,18.23,24.57,38.1,47.71,60.92,68.15,23.99,21.49,49.91,40.69,74.18,61.85,24.12,21.03,45.91,44.6,64.22,70.88,36.84,52.88,61.57,120.38,60.75,185.37-.82,64.57-38.68,116.75-83.62,159.73-45.37,43.38-97.27,79.4-147.05,117.41s-97.12,76.42-135.68,124.47c-39.4,49.09-67.42,106.42-82.38,167.54-30.42,124.22-4.31,250.43,33.94,369.74,4.78,14.92,9.71,29.79,14.67,44.65.61,1.82,3.51,1.04,2.89-.8-40.15-120.44-76.43-245.79-56.38-373.89,9.94-63.54,33.05-124.57,69.23-177.84,35.55-52.34,83.09-94.76,132.5-133.67,48.53-38.23,99.56-73.37,146.38-113.76,41.51-35.81,83.21-78.32,100.37-131.76,18.73-58.34,3.41-125.42-20.3-180.12-25.1-57.89-66.2-104.71-114.49-144.49-24.74-20.38-50.42-39.82-73.12-62.53s-42.52-48.48-60.49-75.08c-8.1-11.99-15.76-24.28-22.99-36.82-3.02-5.23-7.14-10.83-9.22-16.51-2.84-7.77-.25-19.55.9-27.53,3.71-25.85,13.57-50.57,28.9-71.73,6.59-9.1,14.13-17.43,22.35-25.09,1.42-1.32-.71-3.44-2.12-2.12h0Z"/>
      <path class="cls-59" d="m445.16-54.54c-13.76,16.94-24.07,36.38-29.8,57.47-3.5,12.89-5.35,26.24-5.67,39.59-.16,6.58-1.37,16.19.79,22.45,1.74,5.04,6.43,10.09,9.46,14.51,35.29,51.61,75.01,100.1,122.74,140.69,24.79,21.09,50.68,41.03,73.73,64.08s42.65,48.34,58.49,76.3c16.11,28.45,27.7,59.32,34.74,91.23,7.21,32.67,10.81,66.95,4.94,100.13-10.66,60.23-53.77,107.82-98.4,146.67-47.87,41.67-100.91,76.93-151.5,115.11-48.65,36.72-96.21,76.32-133.12,125.23-37.83,50.13-63.39,108.65-75.5,170.21-24.78,125.93,8.63,251.01,53.22,368.41,5.58,14.69,11.3,29.32,17.04,43.95.7,1.78,3.6,1,2.89-.8-46.25-117.74-89.55-240.7-76.43-369.27,6.58-64.46,26.99-127.17,61.49-182.13,33.56-53.48,79.9-96.68,129.17-135.49,49.01-38.6,101.02-73.21,149.74-112.18,43.69-34.95,87.53-75.01,111.17-126.8,25.32-55.47,17.72-120.58-.86-176.94-19.37-58.79-55.5-109.92-101.26-151.21-24.42-22.04-50.63-41.99-75.05-64.03-22.95-20.73-43.29-43.97-62.64-68.04-10.54-13.1-20.7-26.5-30.48-40.17-7.96-11.13-20.48-24.1-21.17-38.11-1.4-28.05,3.7-56.33,16.53-81.43,4.97-9.73,11.01-18.84,17.89-27.31,1.21-1.49-.9-3.62-2.12-2.12h0Z"/>
      <path class="cls-49" d="m430.17-55.27c-10.37,19.21-16.66,40.24-18.43,62.02-1.17,14.32-.44,28.75,1.72,42.95.41,2.67.58,6.82,1.7,9.27,1.04,2.29,3.89,4.88,5.46,6.84,4.42,5.51,8.87,10.99,13.36,16.44,19.89,24.19,40.4,47.91,61.68,70.89,22.77,24.57,47.58,46.64,73.1,68.27,24.65,20.9,49.35,41.89,70.53,66.41,21.37,24.74,39.48,52.43,52.78,82.33,13.57,30.5,22.01,63.13,25.76,96.27,3.73,32.9,2.53,66.63-8.25,98.19-19.74,57.81-67.66,102.02-114.29,138.94-49.92,39.52-103.63,73.92-154.38,112.33-48.52,36.71-94.95,77.39-129.55,127.9s-57.83,112.05-66.36,174.38c-17.25,125.98,23.26,248.13,73.13,362.08,6.27,14.34,12.68,28.61,19.11,42.88.79,1.76,3.38.23,2.59-1.51-52.14-115.66-102.38-237.08-95.34-366.59,3.53-64.98,21.25-128.96,54.04-185.32,31.87-54.77,77.28-98.96,126.68-137.94,49.3-38.91,102.16-72.98,152.31-110.75,45.12-33.98,90.62-71.85,119.24-121.42,31.02-53.73,30.86-117.04,16.58-175.99-14.65-60.5-47.25-114.88-91.28-158.61-22.81-22.66-48.05-42.67-72.3-63.72s-46.71-44.03-68.16-68.08c-20.22-22.66-39.85-45.81-58.87-69.49-9.85-12.27-8.94-33.02-8.48-48.33.4-13.12,2.35-26.17,5.99-38.79,3.05-10.55,7.3-20.66,12.51-30.32.92-1.7-1.67-3.22-2.59-1.51h0Z"/>
      <path class="cls-26" d="m415.27-55.94c-5.49,21.64-7.16,43.89-4.67,66.1.76,6.75,1.85,13.47,3.25,20.12,1.42,6.74,2.4,16.17,5.9,22.09,2.94,4.98,8.96,9.52,12.95,13.72,5.43,5.72,10.87,11.44,16.33,17.14,22.36,23.38,44.68,46.86,67.64,69.66,24.46,24.29,50.93,46.25,76.78,69,50.19,44.18,92.62,95.22,113.61,159.69,20.12,61.81,24.49,135.46-6.12,194.59-27.72,53.53-76.1,93.68-123.81,128.83-50.7,37.34-104.21,70.71-154.44,108.7-48.28,36.51-93.77,77.71-126.72,128.96-34.09,53.03-54.07,113.93-60.1,176.58-12.34,128.16,35.26,250.08,90.95,362.86,6.98,14.13,14.09,28.21,21.22,42.26.87,1.72,3.46.21,2.59-1.51-57.93-114.2-115.07-234.61-113.77-365.59.65-65.35,15.82-130.47,46.95-188.11,30.28-56.05,74.88-101.31,124.48-140.56,49.23-38.96,102.48-72.42,153.56-108.84,46.94-33.47,94.41-69.94,127.27-118.04,71-103.92,31.66-248.7-46.86-336.69-22.05-24.71-47.52-46.07-72.54-67.67-25.37-21.9-49.51-44.8-72.84-68.86-21.66-22.33-43.27-44.71-64.66-67.29-2.53-2.67-5.39-5.27-7.7-8.14-2.99-3.7-3.9-7.82-5.09-12.31-2.03-7.68-3.68-15.47-4.86-23.33-2.06-13.64-2.68-27.51-1.65-41.26.79-10.59,2.65-21.02,5.26-31.3.47-1.87-2.42-2.67-2.89-.8h0Z"/>
      <path class="cls-27" d="m400.46-56.57c1.06,22.36,4.01,44.39,10.32,65.92,2.16,7.38,4.65,14.67,7.41,21.85,2.6,6.76,4.5,13.07,9.9,17.97,11.23,10.19,22.46,20.4,33.62,30.68,24.51,22.56,48.38,45.78,72.68,68.55,25.08,23.49,51.66,45.27,76.9,68.57,49.78,45.96,89.32,100.99,105.79,167.56,15.73,63.57,13.19,135.12-21.61,192.08-31.93,52.26-82.26,90.98-131.74,125.56-52.03,36.36-106.44,69.3-157.13,107.57-48.53,36.64-93.5,78.62-125.23,130.99-33.06,54.57-50.96,117.14-54.34,180.72-6.91,130.11,47.56,251.35,108.75,362.83,7.59,13.82,15.29,27.58,23.02,41.32.95,1.68,3.54.17,2.59-1.51-63.09-112.18-126.71-231-131.66-362.57-2.51-66.87,10.17-134.35,40.39-194.29,28.75-57.02,72.49-103.2,122.13-142.64s104.4-72.98,157.01-108.83c48.42-33,97.47-68.44,133.43-115.36,18.28-23.85,32.18-50.53,39.43-79.78,7.35-29.65,8.35-60.67,5.55-91-5.77-62.42-30.92-120.83-70.52-169.24-20.87-25.51-45.47-47.58-70.22-69.22-25.67-22.44-50.89-45.19-75.5-68.79-23.56-22.58-47.53-44.72-71.67-66.68-6.78-6.16-12.94-11.11-16.51-19.86-3.16-7.75-6.01-15.63-8.48-23.62-3.84-12.42-6.74-25.12-8.6-37.98-1.48-10.22-2.23-20.52-2.72-30.84-.09-1.92-3.09-1.93-3,0h0Z"/>
      <path class="cls-65" d="m385.76-57.21c8.08,22.15,15.92,44.27,26.3,65.48,3.28,6.7,6.75,13.32,10.39,19.83,1.91,3.42,3.73,7.78,6.23,10.75,2.1,2.49,5.64,4.48,8.21,6.5,12.79,10.06,25.52,20.2,38.1,30.54,26.35,21.66,51.55,44.57,76.96,67.32,25.66,22.97,52.26,44.93,76.87,69.05,48.7,47.75,85.02,106.29,96.87,174.18,11.36,65.03,2.54,134.36-35.75,189.29-35.82,51.39-88.32,89.06-139.82,123.35-53.25,35.45-108.52,68.02-159.59,106.65s-94.3,80.95-124.76,135.47c-31.58,56.54-46.78,120.89-47.08,185.48-.6,130.83,60.31,250.39,126.2,359.75,8.15,13.53,16.42,26.99,24.7,40.44,1.01,1.64,3.61.14,2.59-1.51-68.3-110.85-138.27-228.61-149.05-361.37-5.48-67.52,4.62-136.54,33.38-198.14,27.34-58.56,70.63-106.1,120.8-146.09,50.59-40.33,106.34-73.53,160.39-108.89,50.67-33.15,102.21-68.39,141.06-115.5,18.48-22.42,33.39-47.48,42.42-75.18,9.53-29.2,12.73-60.18,11.82-90.8-1.91-64.25-24.67-125.44-63.65-176.38-20.05-26.2-44.04-48.98-68.62-70.86-25.98-23.13-52.1-46.09-78.02-69.28-24.45-21.88-49.75-42.77-75.48-63.14-6.38-5.05-13.95-9.66-18.44-16.55-4.69-7.19-8.52-15.15-12.36-22.82-6.46-12.87-12.19-26.09-17.32-39.55-3.64-9.55-6.96-19.21-10.46-28.8-.66-1.8-3.56-1.02-2.89.8h0Z"/>
      <path class="cls-2" d="m371.16-57.88c14.58,21.08,24.34,44.95,39.95,65.46,18.95,24.9,43.25,42.15,69.06,59.23,30.08,19.91,57.26,43.02,84.48,66.61,26.3,22.8,53.02,45.25,77.33,70.22,48.94,50.27,83.52,112.72,91.12,183.18,7.18,66.54-7.37,134.22-49.03,187.45-38.99,49.82-92.69,86.18-145.43,119.93-54.7,35-111.29,67.3-163.12,106.59s-93.83,81.92-123.03,137.35c-30.85,58.55-43.97,125.02-41.5,190.94,4.96,132,71.8,250.41,142.38,358.26,8.93,13.65,17.97,27.22,27.04,40.78,1.07,1.6,3.67.1,2.59-1.51-73.26-109.58-149.38-226.31-165.97-360.13-8.53-68.76-.87-139.91,26.94-203.7,26.24-60.18,69.56-109.06,120.53-149.65,51.41-40.94,108.49-73.81,163.91-108.86,52.2-33.02,105.38-67.69,146.56-114.37,19.45-22.04,35.62-46.8,46.15-74.33,11.06-28.89,16.03-59.8,16.64-90.65,1.31-66.54-20.3-130.84-59.89-184.16-19.66-26.47-43.28-49.64-67.74-71.64-26.18-23.56-52.9-46.7-80.02-69.17-25.71-21.3-54.46-37.88-80.84-58.16-25.13-19.32-43.32-44.45-58.47-72-5.43-9.87-10.6-19.91-17.01-29.18-1.09-1.58-3.69-.08-2.59,1.51h0Z"/>
      <path class="cls-47" d="m356.64-58.6c19.91,19.01,35.84,41.77,55.33,61.23,23.42,23.38,50.58,40.02,78.75,56.95,30.96,18.61,59.05,40.8,86.65,64.02s52.67,44.79,76.28,70.03c48.95,52.32,81.76,117.67,85.82,189.91,3.78,67.25-15.22,133.64-58.8,185.51-41.79,49.73-97.66,85.72-152.46,119.44-55.75,34.3-113.21,66.22-165.55,105.74-50.85,38.4-95.54,84.38-123.87,142.05-29.2,59.46-40.04,126.53-35.29,192.37,9.68,134.15,82.75,252.4,158.31,359.61,9.71,13.77,19.52,27.46,29.37,41.13,1.12,1.55,3.72.06,2.59-1.51-77.9-108.23-159.41-223.44-182.25-357.82-11.82-69.52-6.94-142.41,19.22-208.24s68.56-113.64,120.91-155.28c52.57-41.81,111.38-74.71,168.56-109.61,53.73-32.8,108.44-67.06,151.68-113.44,42.89-46,66.78-102.97,70.51-165.72,4.03-67.9-16.35-134.21-55.99-189.28-19.41-26.97-42.94-50.68-67.53-72.92-25.65-23.19-52.23-45.63-79.65-66.7-27.18-20.88-57.32-36.56-85.67-55.61-26.81-18.02-48.54-41.37-69.29-65.86-8.18-9.65-16.34-19.34-25.5-28.09-1.4-1.33-3.52.78-2.12,2.12h0Z"/>
      <path class="cls-51" d="m342.19-59.4c25.07,17.61,47.21,39.01,71.43,57.73,27.59,21.33,57.68,37.24,88.11,53.98,32.51,17.89,62.19,39.78,90.78,63.36,26.84,22.14,52.97,45.28,75.94,71.48,48.2,54.99,77.76,123.8,77.01,197.55-.69,68.22-25.3,132.69-71.75,182.78-45.14,48.67-102.94,83.79-159.63,117.28s-114.76,65.08-167.21,105.05c-51.37,39.15-95.52,86.72-122.21,146.15-27.5,61.25-35.72,129.78-28.04,196.21,15.64,135.19,94.47,252.16,174.49,358.08,10.21,13.51,20.51,26.94,30.84,40.36,1.16,1.51,3.77.02,2.59-1.51-82.77-107.53-169.86-221.71-198.46-357.39-14.79-70.14-12.46-144.53,12.22-212.19,23.45-64.3,66.79-116.81,119.85-159.14s111.4-74.18,169-108.06c55.82-32.82,112.71-66.62,158.9-112.61,45.29-45.09,73.43-101.53,80.56-165.21,7.67-68.46-9.96-136.67-48.34-193.71-19.07-28.33-42.64-53.35-67.79-76.35-25.9-23.69-53.29-46.14-81.92-66.45-29.04-20.6-60.98-35.62-91.57-53.61s-55.61-39.59-81.77-61.63c-10.23-8.61-20.58-17.07-31.52-24.76-1.58-1.11-3.08,1.49-1.51,2.59h0Z"/>
      <path class="cls-56" d="m327.44-60.43c28.74,15.75,55.71,34.45,83.57,51.65,30.66,18.92,62.73,34.27,94.97,50.2s64.49,36.74,93.77,59.91c27.94,22.11,54.63,46.01,77.82,73.13,48.47,56.68,76.97,127.65,73.52,202.82-3.21,70.05-32.06,134.93-81.18,184.77-47.47,48.17-106.94,82.78-165.26,116.03-58.76,33.51-118.93,65.4-172.75,106.71-51.1,39.21-94.2,87.47-119.48,147.29-26.72,63.23-32.66,133.51-22.47,201.06,20.69,137.16,106.05,254.02,190.8,359.42,10.67,13.27,21.43,26.46,32.22,39.63,1.22,1.49,3.34-.64,2.12-2.12-87.92-107.4-181.19-221.74-214.72-359.57-17.17-70.56-17.12-146.14,6.42-215.27,22.23-65.29,65.08-118.83,118.54-161.52,53.49-42.72,114.2-75.19,173.52-108.88,57.36-32.57,115.79-66,163.96-111.63,47.41-44.91,78.97-101.89,88.45-166.8,10.23-70.01-6.36-140.2-45.15-199.16s-93.75-104.76-151.12-141.8c-30.66-19.8-64.18-33.84-96.52-50.5-31.19-16.06-60.41-35.48-89.99-54.27-12.97-8.24-26.06-16.29-39.54-23.67-1.69-.93-3.21,1.66-1.51,2.59h0Z"/>
      <path class="cls-35" d="m312.69-61.46c33.01,14.66,65.05,31.36,97.46,47.29,33.27,16.35,67.36,30.54,101.22,45.59,67.04,29.8,128.91,74.32,175.99,130.89,48.47,58.25,75.55,131.34,69.4,207.53-5.72,70.88-38.04,135.61-88.85,184.9-49.41,47.93-110.38,82.2-170.24,115.21-60.5,33.36-122.45,65.23-177.51,107.32-52.54,40.17-96.02,90.19-120.35,152.3-25.32,64.64-28.89,136.15-16.26,204.02,25.79,138.66,116.66,255.04,205.81,359.79,11.41,13.41,22.92,26.73,34.44,40.04,1.27,1.46,3.38-.67,2.12-2.12-92.5-106.79-191.18-220.42-230.32-359.32-19.89-70.59-22.72-146.96-1.25-217.54,20.6-67.73,63.4-123.57,118.21-167.45,107.72-86.23,245.36-128.07,348-221.24,48.91-44.4,83.29-101.25,95.32-166.57,13.11-71.17-2.12-143.63-40.98-204.45s-93.68-106.56-153.31-141.39c-32.09-18.75-66.82-31.93-100.71-46.93-33.85-14.98-66.74-32.02-99.92-48.4-15.45-7.63-30.99-15.07-46.74-22.07-1.75-.78-3.28,1.81-1.51,2.59h0Z"/>
      <path class="cls-3" d="m298.29-62.34c36.57,13.51,72.75,28.01,109.03,42.26s71.4,26.75,106.86,40.73c70.24,27.71,134.51,69.92,182.49,128.88,48.56,59.68,74.47,134.86,65.83,211.97-8.13,72.55-44.3,137.66-97.59,186.83-51.87,47.86-114.89,81.86-176.76,114.82-62.2,33.14-125.83,65.09-181.91,108.21-53.23,40.93-96.36,92.71-119.17,156.47-23.74,66.37-24.72,139.19-9.43,207.57,31.22,139.63,127.28,255.19,220.51,359.12,12.07,13.45,24.23,26.82,36.41,40.16,1.3,1.43,3.42-.7,2.12-2.12-97.01-106.27-200.91-219.26-245.62-359.16-22.79-71.32-28.38-149.32-8.3-221.97,19.11-69.16,61.47-126.57,116.97-171.16,110.16-88.5,251.65-128.82,358.53-221.95,51.44-44.82,89.1-102.92,103-170.2,15.02-72.69.07-147.33-39.89-209.65-38.02-59.3-95.06-107.09-157.49-139.01-32.97-16.86-68.06-28.91-102.65-41.92-36.62-13.76-72.9-28.41-109.34-42.64-17.54-6.85-35.13-13.6-52.8-20.13-1.81-.67-2.6,2.23-.8,2.89h0Z"/>
      <path class="cls-64" d="m283.54-63.37c44.06,13.8,88.12,27.59,132.18,41.39s85.61,25.64,127.14,41.92c70.1,27.48,133.34,72.18,176.47,134.6,40.82,59.08,59.53,130.63,48.46,201.99-11.39,73.41-51.55,137.9-107,186.34-101.66,88.8-235.01,129.02-345,205.39-54.29,37.7-101.49,85.02-128.88,145.99-28.27,62.92-34.25,133.63-23.51,201.34,24.89,156.99,135.16,284.64,240.38,396.62,13.77,14.65,27.66,29.2,41.57,43.71,1.34,1.4,3.46-.73,2.12-2.12-58.42-60.96-116.78-122.5-166.94-190.58-46.61-63.26-86.85-133.1-106.28-209.78-17.68-69.78-18.37-144.69,5.48-213.12,23.64-67.83,70.97-121.46,128.5-163.05,107.9-78.01,239.27-117.97,342.94-202.39,55-44.79,97.48-103.59,114.61-173.11,16.41-66.61,7.46-136.54-24.59-197.09-32.56-61.53-85.58-111.2-146.48-144.22-36.66-19.88-76.33-33.29-115.97-45.84-43.23-13.69-86.54-27.12-129.81-40.67l-64.59-20.22c-1.85-.58-2.64,2.32-.8,2.89h0Z"/>
    </g>
  </g>
</svg>